<svg width="20" height="16" viewBox="0 0 20 16" fill="none" xmlns="http://www.w3.org/2000/svg">
<path fill-rule="evenodd" clip-rule="evenodd" d="M0 1C0 0.447715 0.447715 0 1 0H19C19.5523 0 20 0.447715 20 1C20 1.55228 19.5523 2 19 2H1C0.447715 2 0 1.55228 0 1ZM15.2929 4.29289C15.6834 3.90237 16.3166 3.90237 16.7071 4.29289L19.7071 7.29289C20.0976 7.68342 20.0976 8.31658 19.7071 8.70711L16.7071 11.7071C16.3166 12.0976 15.6834 12.0976 15.2929 11.7071C14.9024 11.3166 14.9024 10.6834 15.2929 10.2929L16.5858 9H1C0.447715 9 0 8.55228 0 8C0 7.44772 0.447715 7 1 7H16.5858L15.2929 5.70711C14.9024 5.31658 14.9024 4.68342 15.2929 4.29289ZM0 15C0 14.4477 0.447715 14 1 14H19C19.5523 14 20 14.4477 20 15C20 15.5523 19.5523 16 19 16H1C0.447715 16 0 15.5523 0 15Z" fill="white"/>
</svg>
