<svg width="48" height="50" viewBox="0 0 48 50" fill="none" xmlns="http://www.w3.org/2000/svg">
<g clip-path="url(#clip0_265_85)">
<g clip-path="url(#clip1_265_85)">
<path fill-rule="evenodd" clip-rule="evenodd" d="M32.1694 44.0931C32.397 46.2485 33.9534 47.9909 36.2117 47.9999C37.4753 48.0049 38.4335 47.5116 39.057 46.8449C39.7504 46.1034 40.315 45.3111 40.3244 44.1027C41.4184 44.0397 45.6553 44.1867 46.209 44.018C46.6708 43.8773 47.0976 43.4698 47.2646 43.0178C47.7214 41.7806 46.7058 41.1515 46.5036 40.8955C46.1964 40.5065 45.6609 40.2232 45.1213 39.2544C43.1345 35.6868 45.7627 32.1275 41.9108 28.3201C40.9107 27.3314 40.414 27.2936 39.4336 26.7476C39.1693 25.712 39.25 25.5614 38.6396 24.8009C37.4973 23.3776 33.7015 23.1346 33.2196 26.4064C33.1389 26.9537 33.2631 26.591 32.0362 27.2737C31.7107 27.4548 31.4735 27.6073 31.1989 27.8082C30.5346 28.2943 29.6703 29.2774 29.2811 30.055C28.9414 30.7335 28.6981 31.2651 28.5187 32.0884C27.8854 34.9956 29.0957 37.2358 26.8732 40.0818C26.2656 40.86 25.0795 41.3808 25.247 42.6321C25.5028 44.5445 27.765 44.095 29.3675 44.0953C30.2972 44.0956 31.2416 44.1114 32.1695 44.0931H32.1694ZM38.6017 44.1013L33.9089 44.0951C34.2377 47.0192 38.2608 47.0043 38.6017 44.1013ZM26.9782 42.3961L45.5793 42.3997C45.4909 42.1775 44.9859 41.784 44.7899 41.5829C44.5144 41.3002 44.3082 41.0408 44.0339 40.684C43.6178 40.143 43.1919 39.2386 42.9788 38.4293C42.3143 35.9042 42.8243 34.2927 42.3895 32.4598C41.9527 30.618 40.9637 29.4517 39.5918 28.7C38.8069 28.2698 37.6694 27.9676 37.6086 27.3824C37.5525 26.8414 37.8007 26.4788 37.4149 26.0286C37.2041 25.7824 36.7842 25.4951 36.3205 25.4748C35.8839 25.4557 35.4172 25.746 35.2241 25.9585C34.3817 26.8861 35.5397 27.5245 34.0919 28.1324C32.1925 28.9299 30.7065 29.9922 30.1514 32.4046C29.5925 34.8335 30.6997 38.7672 27.7907 41.5681C27.6071 41.7449 27.0608 42.2141 26.9784 42.3961H26.9782Z" fill="#825B5C"/>
<path fill-rule="evenodd" clip-rule="evenodd" d="M20.8291 6.40013C20.4187 6.53674 20.2437 6.72653 20.2348 7.26457C20.2263 7.78603 20.1426 9.62826 20.3824 9.97761C20.5745 10.2576 20.9702 10.4003 21.3649 10.2811C22.1659 10.0389 21.9553 9.06014 21.955 8.00885C21.955 7.58911 22.04 7.02206 21.8268 6.70745C21.6584 6.45921 21.263 6.25562 20.8291 6.40013ZM19.8833 2.03884C14.9582 2.33903 11.4153 4.0183 8.37481 6.23732C5.31801 8.46813 2.99975 11.5539 1.54516 15.097C-0.0720813 19.0364 -0.532756 24.0413 0.70646 28.5108C1.62316 31.8172 2.80252 33.8221 4.71469 36.3089C6.43566 38.5473 8.72027 40.1909 11.1696 41.6074C13.774 43.1136 17.2605 43.9272 20.4238 44.0868C20.8879 44.1102 21.8927 44.182 22.2265 43.9951C22.6847 43.7388 22.8523 43.0386 22.4419 42.5971C22.1076 42.2375 21.3571 42.3453 20.7536 42.3434C17.1006 42.3327 13.1786 41.0346 10.3002 39.0514C9.47478 38.4828 8.78369 37.9204 8.09384 37.3211C7.90917 37.1607 7.79691 37.0079 7.60836 36.8419C7.22273 36.5023 6.50451 35.6676 6.18416 35.2976C4.07368 32.8602 1.92009 28.4669 1.76534 23.9813C1.53369 17.2685 4.45667 11.4592 9.14591 7.86573C16.0864 2.54696 25.6339 2.47254 32.7003 7.58368L34.5925 9.1172C38.3568 12.8986 40.438 16.8956 40.5995 23.241C40.6138 23.8022 41.0211 24.2449 41.6772 24.0976C42.2949 23.9589 42.3292 23.4538 42.3173 22.7818C42.2385 18.3378 40.8718 14.4222 38.4892 10.9211C37.9215 10.0869 37.3306 9.44018 36.7133 8.76165C36.0914 8.07816 35.4275 7.48832 34.6826 6.85476C34.0189 6.2902 33.1523 5.67834 32.38 5.21999C28.6614 3.01353 24.4817 1.7585 19.8836 2.03869L19.8833 2.03884ZM19.3347 22.2685C19.144 23.2196 19.137 23.8557 19.6944 24.5237C20.8088 25.859 22.6872 25.5855 23.4586 24.3444C23.9118 23.6152 23.9379 22.9591 23.6076 22.093C23.8582 21.9299 27.2366 18.4919 27.7524 17.9737C27.9315 17.7937 28.2889 17.4859 28.4268 17.2811C28.6612 16.9328 28.5412 16.4243 28.2787 16.1687C27.5392 15.4491 26.8531 16.3963 26.5461 16.7108C26.0724 17.1961 25.6344 17.6349 25.1594 18.1189L22.3506 20.9004C21.3052 20.6924 21.5926 20.666 20.5254 20.9056L13.3568 13.8078C13.1827 13.6326 13.072 13.4368 12.7113 13.4208C12.3613 13.4051 12.1342 13.5445 11.9797 13.7244C11.8304 13.8982 11.7457 14.1319 11.7754 14.425C11.812 14.787 11.9653 14.888 12.1506 15.0715C12.5069 15.4248 12.8197 15.7436 13.1768 16.0986C13.8683 16.7865 18.9167 21.7657 19.335 22.2685H19.3347ZM20.9181 35.8738C20.0078 36.0743 20.237 37.0704 20.2367 38.0113C20.2365 38.4228 20.1427 39.0176 20.3359 39.3389C20.5046 39.6194 20.8315 39.8571 21.2957 39.7541C22.1861 39.5566 21.9555 38.561 21.9553 37.612C21.9552 37.1971 22.0392 36.5994 21.8607 36.2784C21.7057 35.9997 21.3501 35.7786 20.9181 35.8738ZM4.87874 22.2367C4.0205 22.4679 4.0574 23.6991 4.86354 23.8993C5.08062 23.9532 7.52634 23.9503 7.71861 23.8934C8.49529 23.6633 8.52599 22.4554 7.71504 22.2451C7.49067 22.187 5.07643 22.1835 4.87889 22.2367H4.87874Z" fill="#44453D"/>
</g>
</g>
<defs>
<clipPath id="clip0_265_85">
<rect width="47.3806" height="50" fill="white"/>
</clipPath>
<clipPath id="clip1_265_85">
<rect width="47.3806" height="46" fill="white" transform="translate(0 2)"/>
</clipPath>
</defs>
</svg>
