<?xml version="1.0" encoding="UTF-8"?>
<!DOCTYPE svg PUBLIC "-//W3C//DTD SVG 1.1//EN" "http://www.w3.org/Graphics/SVG/1.1/DTD/svg11.dtd">
<!-- Creator: CorelDRAW 2017 -->
<svg xmlns="http://www.w3.org/2000/svg" xml:space="preserve" width="229.518mm" height="239.685mm" version="1.1" style="shape-rendering:geometricPrecision; text-rendering:geometricPrecision; image-rendering:optimizeQuality; fill-rule:evenodd; clip-rule:evenodd"
viewBox="0 0 4530.08 4730.73"
 xmlns:xlink="http://www.w3.org/1999/xlink">
 <defs>
  <style type="text/css">
   <![CDATA[
    .fil0 {fill:#151E22}
   ]]>
  </style>
 </defs>
 <g id="Layer_x0020_1">
  <metadata id="CorelCorpID_0Corel-Layer"/>
  <path class="fil0" d="M1908.02 1428.98l14.67 -28.24c74.57,-181.62 142.67,-377.07 270.17,-530.55 78.14,-94.06 153.9,-192.85 245.12,-270.61 92.9,-79.19 187.62,-152.67 302.08,-206.15 39.75,-18.57 76.03,-39.28 116.06,-57.75 141.09,-65.12 396.68,-108.25 545.03,-16.06 -178.98,8.63 -243.96,-11.52 -421.04,36.38 -117.66,31.83 -213.04,72.84 -308.19,143.46 -64.54,47.9 -71.62,59.71 -122.56,106.97 -16.01,14.85 -26.32,25.01 -36.24,43.06 35.83,-19.32 83.86,-74.74 122.07,-103.37 144.59,-108.36 292.62,-172.74 477.15,-192.59 66.74,-7.18 136.44,-15.29 208.94,-10.19 38.72,2.72 84.31,3.64 114.48,23.33 64.04,41.79 109.19,86.33 149.67,156.78 18.56,32.3 63.38,119.36 63.05,158.83 -21.76,-19.86 -25.3,-36.86 -44.34,-59.14 -51.47,-60.22 -110.25,-108.52 -188.07,-138.95 -163.82,-64.07 -390.22,-6.56 -538.99,68.13 -85.68,43.02 -219.98,133.38 -289.85,196.91 -11.19,10.17 -15.83,17.19 -28.07,27.15 -28.86,23.47 -30.31,22.48 -52.4,57.07 66.83,-51.87 135.41,-125.17 210.42,-171.25l84.67 -47.15c59.49,-33.51 103.68,-54.71 176.29,-81.35 184.44,-67.66 459.73,-64.7 572.87,94.12 88.65,124.44 98.57,245.35 80.22,431.26 -9.87,99.94 -48.82,262.41 -95.18,353.82 -8.58,16.91 -13.46,21.25 -24.11,45.17 -21.94,49.31 -62.68,116.81 -89.95,167.3 -14.67,27.15 -29.53,52.44 -45.38,79.97l-78.52 114.82c-14.68,25.96 -12.41,10.08 -29.45,34.61l-73.98 86.45c-15.51,15.19 -5.72,8.56 -14.77,20.14 -18.81,24.09 -17.15,9.69 -33.54,28.85 -9.61,11.24 -11,22.9 -25.63,37.57 -12.58,12.62 -24.19,19.95 -36.21,33.28 -22.22,24.62 -42.78,41.95 -63.01,62.45l-265.89 244.47c-34.57,17.3 -415.31,327.9 -508.52,394.18 -48.74,34.66 -95.74,76.7 -144.6,113.52l-242.15 203.3c-34.71,24.08 -71.31,69.22 -104.58,97.17 -152.62,128.25 -385.47,375.22 -509.4,528.2l-117.01 140.49c-9.07,12.74 -15.71,26.93 -25.23,37.54 -81.02,90.27 -287.42,394.32 -340.7,512.87 33.59,-28.21 135.46,-202.45 161.18,-240.07 107.79,-157.65 229.4,-311.57 357.06,-450.51 38.09,-41.45 54.4,-69.54 93.24,-108.6 76.29,-76.72 223.42,-238.21 301.29,-304.32 145.38,-123.4 287.37,-252.52 436.72,-371.11l196 -153.54c36.62,-21.29 6.37,17.15 22.02,-2.44 21.01,-50.14 33.34,-29.45 50.07,-43.27l21.53 -26.61c7.59,-6.7 24.72,-15.19 34.28,-21.65 20.8,-14.05 41.79,-30.96 58.95,-44.89 40.77,-33.08 40.85,-53.05 53.66,-23.29 16.05,-23.84 10.96,-44.73 41.16,-49.8 0.38,-0.06 2.07,-0.23 2.42,-0.25l10.93 2.48c7.66,-15.52 1.29,-14.07 3.15,-24.36l118.25 -84.96c14.65,-20.5 -19.01,0.58 22.47,-20.25l12.97 -5.21c22.18,-9.54 9.42,-21.89 41.12,-39.96 18.67,-10.64 5.89,-4.45 15.77,-3.56 1.41,0.13 5.27,1.68 6.36,2.06l5.61 3.18c12.79,-18.1 5.16,-36.33 33.45,-51.81 18.8,-6.07 -4.02,15.06 12.15,-0.34l2.67 -4.44c0.29,-0.52 0.94,-2.49 1.24,-3.09 22.6,-44.49 36.45,-27.29 59.38,-45.84 24.61,-19.91 -20.89,-12.91 58.39,-47.69l0.9 -28.21c33.08,-5.55 13.6,2.73 33.62,-13.9l22.89 -25.7c1,-1.03 2.43,-2.52 3.47,-3.52 1.05,-1 2.57,-2.4 3.66,-3.37l27.57 -21.52c28.37,-23.91 69.76,-79.25 90.68,-92.2l21.3 -25.8c17.83,-19.83 -0.86,0.53 15.43,-11.83l23.72 -31.76c0.86,-1.16 2.22,-2.79 3.11,-3.97l66.04 -73.74c17.97,-23.7 34.14,-36.34 47.36,-57.02 19.35,-30.25 18.5,-48.6 52.68,-42.72 -13.19,-28.33 30.86,-68.43 57.56,-111.52 24.14,-38.96 33.16,-85.37 72.57,-112.78 -5.55,29.48 -28.02,56.18 -38.04,77.23 -7.93,16.67 -0.23,18.98 -13.28,42.97 -23.25,42.74 -111.49,188.61 -140.2,214.6 -26.25,23.76 -8.07,-5.15 -27.21,28.75l-152.12 203.09c-62.8,74.91 -95.48,119.74 -167.27,180.52l-581.33 470.2c-24.03,16.86 -43.66,27.97 -65.28,46.24l-135.43 101.18c-25,18.02 -44.3,33.79 -65.47,53.14 -55.72,50.89 -131.63,100.64 -193.57,154.23 -23.8,20.6 -39.82,29.68 -66.35,51.95 -50.5,42.4 -213.38,182.07 -243.47,224.59l622.49 -481.91c-8.82,31.32 -82.61,77.32 -111.03,100.46l-270.51 217.39c-56.72,57.8 -196.08,163.14 -242.05,210.58 -92.54,95.51 -180.35,171.65 -268.32,274.39l-104.76 104.4c-36.37,42 -62.86,78 -98.68,116.85 -33.87,36.73 -62.55,82.95 -92.11,123.86 -20.52,28.4 -37.55,31.43 -52.29,58.84 -24.94,46.39 -57.32,76.09 -87.16,122.14l-132.46 187.57c-29.35,44.69 -144.91,222.65 -159.06,275.9l370.98 -502.16c11.56,-14.28 16.33,-19.06 29.24,-32.96l81.17 -86.58c10.4,-10.27 22.22,-26.23 29.19,-33.78l499.02 -440.92c86.09,-69.36 169.59,-145.7 263.95,-209.24 25.19,-16.96 46.69,-32.21 69.26,-49.13 23.83,-17.87 38.83,-34.09 65.9,-52.3l236.53 -167.38c17.11,-11.21 23.07,-9.22 40.29,-22.5l70.32 -47.99c209.68,-143.69 719.1,-485.51 817.36,-589.22 39.1,-41.26 92.18,-70.16 128.66,-108.06 98.9,-102.73 295.61,-285.01 364.34,-394.85l121.41 -177.67c75.15,-123.52 179.16,-345.33 215.37,-487.98 15.14,-59.63 32.35,-139.8 42.58,-195.57l18.51 -246.83 -19.2 -153.62c-44.23,27.87 -6.06,19.27 -13.99,67.03 -4.75,28.63 -10.74,12.54 -9.57,36.23 1.84,37.06 15.45,-7.67 6.37,43.59 -3.82,21.53 -9.53,21.64 -7.07,44.92 4.05,38.32 -20.22,175.73 -31.53,222.8 -15.5,64.47 -59.57,233.46 -93.59,274.11 2.29,-79.37 47.71,-174.55 59.79,-259.02l17.71 -289.7c-3.41,-22.65 3.84,-26.63 -4.83,-47.34 -5.78,-13.79 -5.12,-2.82 -5.13,-14.96 -0.05,-53.5 10.44,1.45 -12.48,-92.91l-62.95 -145.39c-17.64,-28.95 4.49,11.2 -17.76,-17.9 -7.4,-9.68 -2.37,-6.48 -10,-17.91l-24.55 -24.11c-6.57,-7.29 -6.66,-9.41 -10.83,-16.76l-15.55 -26.04c-32.71,-47.33 -55.48,-63.47 -76.49,-90.79l-54.46 -50.47c-18.25,-14.22 -9.73,-8.68 -34.71,-20.17 -0,0.02 -6.65,2.89 -0.54,18.14l155.6 195.36c29.33,50.23 44.19,81.49 62.13,139.89 15.75,51.27 19.15,114 19.54,168.26 0.88,118.92 -8.05,263.03 -36.66,360.41 -70.85,241.19 -166.05,481.29 -317.44,685.08l-131.3 168.21c-11.14,14.01 -34.25,43.53 -49.33,55.11 -31.29,24.03 -22.3,33 -44.64,52.99 -23.77,21.26 -9.5,-2.28 -25.96,22.55 -15.21,22.95 3.07,14.35 -23.75,32.64l-101.01 100.68c-20.38,28.04 -29.63,14.18 -52.95,44.13 -16.97,21.79 -22.18,48.31 -59.09,45.13 12.12,-33.86 93.96,-104.1 129.06,-135.24 13.38,-11.87 16.16,-10.07 30,-25.72l246.4 -303.72c123.74,-161.19 240.34,-384.24 302.49,-574.73 9.78,-29.97 15.13,-53.44 23.91,-80.81 65.62,-204.6 84.01,-444.64 15.89,-644.74 -45.38,-133.29 -100.93,-169.57 -169.16,-269.8 -43.12,-63.34 -128.95,-94.79 -203.32,-123.41 -37.96,-14.61 -74.28,-15.24 -91.85,-7.47 1.47,0.98 3.83,0.53 4.59,2.63l114.54 39.81c174.16,51.29 318.46,297.22 340.35,468.91 4,31.4 4.59,91.45 6.78,124.7l0.93 150.65c-15.45,-6.93 -6.87,2.94 -12.68,-14.99 -3.76,-11.6 -2.01,-14.94 -1.9,-25.92 0.67,-71.89 -4.8,-149.74 -23.88,-218.73 -46.96,-169.78 -142.47,-296.58 -270.65,-411.73 -14.2,-12.76 -16.12,-12.47 -32.85,-22.83 -42.05,-26.05 -71.23,-47.93 -123.24,-65.27 -47.17,-15.73 -37.98,-23.97 -97.71,-28.31 -223.42,-16.24 -296.1,-1.05 -495.36,98.06 -54.78,27.25 -110.78,54.12 -157.85,85.53 -50.5,33.7 -104.05,61.07 -147.08,103.46 -22.65,22.31 -41.37,31.92 -64.36,54.09l-122.48 128.05c-19.19,23.29 -37.77,44.78 -56.66,68.63 -37.45,47.25 -66.68,87.86 -102.61,140.9 -79.48,117.3 -215.52,382.18 -225.63,521.19zm-1213.55 -380.75l24.8 -16.02c1.67,-1.35 5.97,-5.41 7.55,-6.76 56.12,-47.91 41.06,-45.41 116.37,-91.72 20.17,-12.4 13.41,-10.33 30.73,-25.17 30.58,-26.21 48.29,-12.88 65.86,-44.79 -6.43,-3.11 -0.03,-3.84 -13.71,-3.96 -30.71,-0.25 -133.71,71.44 -157.63,89.52 -12.36,9.35 -20.31,19.4 -28.06,27.59 -17.14,18.11 -37.88,40.43 -45.9,71.31zm2662.25 1932.68c33,-13.35 61.44,-38.02 89.48,-57.52 32.62,-22.68 52.52,-50.62 83.39,-69.72 55.54,-34.36 16.71,-25.84 52.77,-51.36 44.01,-31.15 33.14,-32.69 66.17,-52.12 24.9,-14.65 30.52,-10.77 28.22,-47.65 -34.62,0.97 -24.85,4.61 -42.56,26.42 -21.99,27.08 -71.73,60.34 -83.59,69.8 -13.73,10.94 -87.8,91.8 -157.17,142.2 -24.62,17.89 -32.21,11.73 -36.73,39.96zm-3113.68 -2594.43c52.23,4.6 183.93,-61.99 162.81,-144.68 -48.29,-5.68 -81.53,16.7 -106.77,43.38l-56.09 97.36c-0.13,0.61 -0.34,2.68 0.05,3.93zm147.35 154.67c-36.97,-12.27 22.28,14.08 -7.65,-6.14 -26.79,-18.11 -3.55,-0.21 -57.56,47.39 -17.58,15.5 -24.72,18.13 -40.43,37.44 -18.32,22.52 -18.71,12.82 -29.37,21.59l-95.04 138.46c-26.85,35.81 -21.48,31.29 -44.1,38.75l67.1 -127.43c23.17,-30.82 19.62,1.9 18.12,-42.7 -14.66,11.54 -27.69,33.81 -38.27,50.65l-93.32 192.76c52.79,-51.79 14.58,-72.61 75.44,-70.97 -21.83,21.95 -45.59,91.77 -79.05,93.92l-7.31 -1.61c-0.19,-0.05 -1.31,-1.08 -1.91,-0.76 -7.32,29.56 -57.1,117.56 -53.87,152.73 2.2,23.89 -10.58,-3.94 3.71,12.35l30.21 -82.13c4.31,-12.66 -4.87,-3.67 10.72,-20.57 10.24,-11.1 28.44,-19.03 40.61,-24.54l-36 -19.13c69.37,-27.5 81.5,-55.27 125.56,-120.01 5.62,-8.26 14.08,-17.29 21.66,-26.5 0.91,-1.11 2.25,-2.67 3.14,-3.81 0.9,-1.14 2.13,-2.79 3.01,-3.97l28.56 -34.57c25.12,-24.34 15.46,-19.76 33.33,-43.12l69.05 -77.28c17.45,-16.29 32,-34.14 47.96,-49.23 15.77,-14.91 35.92,-38.04 47.81,-56.06 -34.92,6.9 -15.5,10.06 -42.11,24.48zm20.89 992.82c15.71,-26.35 16.16,-55.27 24.5,-95.03 29.19,-139.12 100.4,-319.26 199.77,-420.53 155.44,-158.4 329.94,-288.53 568.84,-262.11 88.9,9.83 158.53,11.61 254.89,48.26 1.77,0.67 20.78,7.25 20.82,7.25l11.39 0.07c16.01,-1.9 9.05,-0.77 18.1,-6.1 -87.74,-32.28 -54.98,-35.98 -186.63,-67.1 -149.89,-35.43 -278.33,-26.89 -416.1,42.43 -176.75,88.93 -304.2,192.91 -396.34,369.78 -52.04,99.88 -70.03,176.19 -89.51,286.38l-9.74 96.7zm1055.76 2681.43c31.36,-14.14 62.99,-46.14 90.94,-67.55 238.49,-182.59 538.36,-385.94 801.5,-528.7l152.33 -84.21c18.95,-11 30.74,-16.42 47.52,-30.59 4.62,-3.9 4.55,-5.53 9.37,-8.4 38.31,-22.81 -21.65,18.85 29.68,-5.43 17.99,-8.51 29.6,-20.63 47.41,-30.44 16.73,-9.22 31.45,-18.37 47.93,-28.18l266.54 -165.95c16.93,-14.98 14.69,9.7 11.99,-25.68l-146.29 80.26c-17.39,8.66 -30.58,17.88 -48.15,28.16 -54.04,31.6 -271.41,146.47 -320.51,181.14l-270.97 160.57c-138.14,90.7 -228.97,146.07 -372.1,247.79 -73.71,52.38 -196.18,136.26 -264.86,194.66l-82.32 82.56zm3029.57 -2752.3c-12.67,7.45 -6.3,1.45 -19.37,12.87 -29.06,25.38 -78.13,187.69 -94.32,239.67 -19.45,62.44 -83.11,188.88 -116.5,245.88 -13.53,23.1 -16,17.22 -30.49,39.16 -14.58,22.07 -49.41,99.7 -99.1,165.62 -20.5,27.19 -36.44,48.3 -57.45,74.67 -9.41,11.81 -15.69,23.03 -26.78,35.82 -49.13,56.69 -73.53,94.4 -121.42,142.98 -17.05,17.29 -14.77,23.87 -29.1,41.05l-166.31 160.91c-17.49,15.99 -15.91,18.5 -33.41,36.31 -55.31,56.27 -2.25,57.87 20.27,34.81 16.61,-17.01 3.13,-14.56 27.2,-36.43 77.01,-69.99 15.93,-39.81 63.63,-68.48 33.5,-20.14 17.96,-0.06 33.12,-37.21 9.35,-22.93 3.77,-17.81 29.44,-33.06 49.14,-29.19 13.53,1.29 34.32,-35.11 16.65,-29.15 12.68,-10.74 33.58,-28.69l59.71 -72.11c23.36,-33.47 1.09,-10.88 38.59,-32.71 32.96,-19.18 14.9,-10.64 19.25,-30.99 9.55,-44.65 6.18,1.53 56.47,-73.1l113.61 -150.13c12.98,-21.11 9.92,-24.34 25.05,-45.52 12.56,-17.58 13.5,-20.44 24.2,-38.39 11.55,-19.38 23.19,-25.93 30.35,-38.95l129.64 -232.58c20.39,-47.48 80.98,-176.99 86.14,-213.13 2.45,-17.12 13.91,-89.18 -30.32,-63.18zm-3272.66 2707.64l156.04 -138.03c17.98,-17.28 28.61,-32.93 47.61,-49.75l154.53 -137.87c16.83,-15.38 35.88,-28 57.22,-47.48 84.28,-76.95 173.99,-158.02 273.38,-221.37l523.6 -366.76c20.99,-12.49 39.28,-20.77 61.8,-36.15l755.63 -532.24c108.68,-78.28 215.32,-190.86 312.91,-278.9 64.93,-58.58 130.39,-141.95 189.05,-208.35 46.91,-53.1 95.05,-105.36 135.01,-163.97 17.22,-25.26 22.17,-34.27 41.05,-56.35l180.22 -313.67c10.83,-30.31 18.05,-43.28 30.85,-74.16 8.2,-19.8 19.71,-44.79 29.67,-67.54l52.27 -143.25c6.15,-19.88 4.18,-19.27 8.16,-39.45l33.39 -107.64c3.18,-9.26 0.36,3.24 3.54,-9.94 8.77,-36.3 -10.56,-18 5.88,-39.03 29.27,-37.42 19.08,-140.34 55.61,-157.59l-7.96 131.43c-24.47,138.14 -135.81,478.9 -217.11,598.01 -33.58,49.2 -59.9,108.65 -89.1,161.86l-51.13 80.87c-0.78,1.36 -1.64,3.22 -2.42,4.59l-70.91 103.3c-59.25,82 -133.74,158.92 -194.87,236.79 -36.83,46.92 -85.67,90.19 -124.67,132.96 -84.55,92.73 -174.94,168.99 -272.96,249.3 -30.73,25.17 -66.55,47.18 -96,71.33l-146.46 110.93c-61.65,51.03 -491.48,329.04 -573.32,381l-202.88 138.13c-110.97,85.41 -241.53,160.09 -354.49,244.42 -18.19,13.58 -28.4,27.26 -48.33,41.96l368.95 -236.81c150.39,-93.48 300.35,-200.84 452.89,-292.61l443.68 -294.39 298.02 -237.74c110.02,-100.7 218.78,-203.33 314.74,-318.36l98.82 -117.18c114.6,-130.35 212.85,-290.1 292.34,-445.72 76.78,-150.32 169.82,-369.61 198.81,-540.42l26.79 -124.4c3.26,-26.23 -2.1,-10.94 2.47,-40.18 11.17,-71.49 23.77,-184.04 19.34,-245.95 -1.88,-26.23 -2.64,-7.04 -1.62,-36.46 0.59,-17.17 0.76,-37.06 -0.83,-55.17 -5.1,-58.09 -17.37,-124.68 -27.81,-179.91 -10.87,-57.54 -24.2,-112.72 -46.8,-169.17 -20.19,-50.44 -49.19,-93.14 -73.74,-142.02 -15.45,-30.75 -71.54,-102.73 -93.63,-118.88 8.16,25.35 29.01,36.77 43.55,64.36 13.5,25.62 27.87,50.87 40.65,77.74 78.93,165.95 112.82,389.54 97.84,580.03 -5.77,73.4 -4.8,139.54 -30.76,199.6 -74.21,171.68 -99.37,326.69 -187.25,509.06 -32.46,67.37 -70.5,161.06 -114.4,227.34 -59.78,90.25 -57.02,99.57 -138.03,209.92 -32.52,44.29 -64.08,94.46 -102.43,134.28 -74.08,76.9 -134.45,172.34 -214.49,245.49 -53.58,48.98 -92.62,97 -146.89,137.91l-98.51 82.75c-77,72.08 -175.43,135.49 -255.7,204.38 -21.99,18.87 -42.57,25.51 -66.9,44.34 -27.34,21.17 -39.46,28.65 -67.68,50.49 -89.5,69.28 -185.92,122.51 -278.09,188.29l-614.48 423.25c-25.15,18.28 -43.72,33.7 -67.78,50.55l-436.63 371.58c-13.16,12.66 -14.25,14.22 -28.27,26.81 -58.97,52.94 -218.25,211.6 -260.98,269.82zm601.44 -3098.41c-29.36,-75.81 -24.49,-89 -74.11,-204.74 -222.87,-519.91 -863.07,-630 -1292.97,-291.11 -15.64,12.33 -25.87,16.27 -40.62,29.3l-106.2 102.54c-131.85,141.07 -248.22,364.97 -287.01,562.68 -38.34,195.42 -29.46,426.23 13.83,627.15 33.39,154.96 44.71,143.56 82.82,265.59 6.89,22.05 11.82,39.4 29.57,54.21 -17.59,-80.76 -59.02,-164.93 -82.19,-266.61 -21.62,-94.87 -39.85,-183.68 -42.75,-286.79 -3.22,-114.53 -2.28,-203.49 24.48,-305.33 30.25,-115.13 27.97,-145.17 81.05,-260.19 114.99,-249.18 242.86,-403.1 476.2,-546.96 51.28,-31.62 188.31,-85.58 262.37,-84.03 -108.37,46.57 -56.67,-7.09 -277.63,116.66 -184.34,103.24 -386.74,364.88 -438.08,571.75 -15.24,61.42 -37.2,76.03 -49.76,152.94 24.47,13.57 -11.09,9.31 7.69,-1.36 31.09,-17.66 -18.35,-13.97 5.03,-5.6 -6.42,35.51 1.06,83.76 -11.63,114.04 -9.08,21.67 2.27,1.23 -9.11,13.09 18.33,-30.1 9.47,-72.35 13.87,-110.44 -36.11,41.89 -31.18,368.44 -22.52,425.08 11.52,75.35 27.94,144.29 46.9,210.67l47.14 147.77c6.15,17.59 13.64,32.18 19.61,52.78l-0.19 -50.96c20.96,26.79 37.08,95.95 56.42,130.72l27.88 56.29c0.68,1.52 1.42,3.39 2.14,4.88l71.38 130.17c29.87,51.32 58.22,100.93 98.77,146.26 19.19,21.46 -2.92,19.93 23.12,13.77 8.71,-21.21 -55.41,-103.53 -67.64,-123.24 -54.53,-87.91 -104.54,-175.34 -141.6,-275.27 -20.01,-53.96 -28.75,-104.99 -50.83,-158.8 -35.15,-85.61 -54.05,-237.94 -62.26,-357.18 -3.85,-55.94 7.48,-304.93 36.9,-353.73 -2.17,90.57 -31.13,175.68 -24.98,305.1 11.45,241.01 72.25,477.57 190.48,682.61 20.86,36.18 43.89,75.78 63.47,111.03 80.38,144.66 186.81,270.83 304.99,391.43 59.63,60.85 106.02,111.78 185.19,163.06 43.67,28.29 157.97,129.91 205.2,139.65 -47.76,-45.21 -197.72,-154.79 -251.61,-197.9 -99.55,-79.63 -199.93,-191.37 -276.96,-293.86 -8.62,-11.46 -13.69,-19.06 -23.34,-32.76 -76.24,-108.27 -136.75,-196.72 -195.4,-319.87 -84.59,-177.59 -127.69,-320.18 -149.33,-532.43 -22.34,-219.14 3.85,-379.14 90.91,-578.12l83.18 -146.45c49.52,-68.25 146.09,-192.56 227.18,-226.4 2.6,44.52 -72.19,64.46 -92.21,96.9 -17.22,27.9 -40.87,47.45 -61.02,71.17 -54.01,63.61 -90.68,130.87 -126.39,215.6 -24.45,58.03 -48.61,127.69 -58.76,190.7 -4.24,26.35 -6.12,53.07 -9.13,81.89 -1.03,9.9 -2.38,25.96 -4.15,37.56l-5.78 26.47c-0.15,0.81 -0.54,2.7 -0.65,3.42 -0.09,0.63 -0.24,2.47 -0.28,3.05l0.5 8.57c0.06,1.18 0.2,4.56 0.27,5.76l3.81 75.76c0,0.01 4.21,28.98 4.5,30.99 3.38,23.13 -8.73,4.44 8.08,24.27 8.63,-78.66 5.71,-133.62 16.78,-205.79 12.86,-83.84 62.44,-223.31 100.04,-298.51 52.39,-104.79 86.78,-142.5 160.76,-228.02 0.61,21.97 -20.46,37.45 -38.07,59.07 -87.35,107.26 -133.22,243.32 -167.58,375.3 -30.66,117.76 -30.2,261.38 -11.83,388.03 8.62,59.42 16.7,117.14 32.21,170.73l50.3 165.47c8.4,29.66 49.55,120.83 68.87,144.72 -26.01,-99.42 -79.17,-162.26 -115.86,-362.63 -9.69,-52.91 -14.31,-96.16 -17.31,-150.66 -14.82,-268.76 50.92,-526.97 218.3,-736.47 43.46,-54.39 115.9,-110.94 175.08,-152.23 44.21,-30.85 58.31,-18.66 97.28,-63.45l52.22 -22.83c1.09,-0.47 4.14,-2.39 5.41,-3.21l24.18 -13.88c1.26,-0.35 3.42,-0.47 4.67,-0.74l12.92 -1.89c34.06,-9.49 36.99,-17.1 98.54,-30.18 46.26,-9.83 88.26,-13.29 131.52,-15.71l70.15 2.24c15.92,-1.06 5.76,-2.91 28.26,1.13 47.54,8.54 87.71,15.57 128.96,31.84 122.91,48.47 189.4,46.95 261.99,225.86l69.85 258.37c22.34,144.15 -30.77,293.49 -69.2,423.83 -34.84,118.15 -94.22,225.28 -167.34,319.79 -16.48,21.3 -17.58,32.66 -30.36,53.53 -11.63,18.99 -21.42,29.37 -34.06,49.34 -40.95,64.69 -115.58,131.79 -143.85,179.49 117.16,-72.62 240.99,-238.53 317.29,-354.03 52.5,-79.47 77.57,-125.62 118.71,-215.5 24.31,-53.11 48,-126.93 74.33,-176.38 13,-24.42 0.98,-32.66 20.16,-56.12 20.19,3.54 2.14,-0.67 14,10.98 11.9,11.7 -8.36,4.97 10.82,11.82 -22.84,-23.45 7.7,25.42 -5.07,-13.72 -13.6,-41.68 -13.32,-20.17 -18.57,-36.48 42.16,-67.93 1.71,-200.07 15.34,-276.98 23.67,-133.54 263.03,-464.14 356.39,-569.2 119.25,-134.2 248.95,-267.22 401.41,-364.88 33.84,-21.68 54.32,-39.23 91.71,-61.42l146.79 -82.82c20.29,-11.91 41,-13.41 51.83,-33.34 -186.89,76.16 -340.25,185.45 -490.42,304.89 -66.16,52.62 -167.08,169.31 -202.49,201.27 -99.21,89.55 -210.94,269.48 -280.26,387.62 -30.18,51.44 -59.96,135.1 -92.63,178.55z"/>
 </g>
</svg>
