<svg width="48" height="48" viewBox="0 0 48 48" fill="none" xmlns="http://www.w3.org/2000/svg">
<path d="M24 0C37.2548 0 48 10.7452 48 24C48 37.2548 37.2548 48 24 48C10.7452 48 0 37.2548 0 24C0 10.7452 10.7452 0 24 0ZM23.999 11.2002C20.525 11.2002 20.0884 11.2152 18.7236 11.2773C17.361 11.3397 16.4301 11.5555 15.6162 11.8721C14.7745 12.199 14.06 12.636 13.3486 13.3477C12.6367 14.0591 12.2001 14.7737 11.8721 15.6152C11.5548 16.4293 11.3387 17.3597 11.2773 18.7217C11.2163 20.087 11.2002 20.5238 11.2002 24C11.2002 27.476 11.2155 27.9113 11.2773 29.2764C11.34 30.639 11.5558 31.5699 11.8721 32.3838C12.1993 33.2255 12.637 33.94 13.3486 34.6514C14.0597 35.3631 14.7741 35.8011 15.6152 36.1279C16.4296 36.4444 17.3603 36.6603 18.7227 36.7227C20.0877 36.7848 20.5243 36.7998 24 36.7998C27.4761 36.7998 27.9111 36.7848 29.2764 36.7227C30.639 36.6603 31.5704 36.4445 32.3848 36.1279C33.2262 35.8011 33.9393 35.3631 34.6504 34.6514C35.3624 33.9399 35.7999 33.2253 36.1279 32.3838C36.4426 31.5697 36.6586 30.6393 36.7227 29.2773C36.784 27.912 36.7998 27.4763 36.7998 24C36.7998 20.5242 36.784 20.0876 36.7227 18.7227C36.6587 17.36 36.4426 16.4291 36.1279 15.6152C35.7999 14.7735 35.3623 14.0591 34.6504 13.3477C33.9385 12.6358 33.2263 12.1987 32.3838 11.8721C31.5678 11.5556 30.637 11.3397 29.2744 11.2773C27.9094 11.2152 27.4746 11.2002 23.999 11.2002Z" fill="white"/>
<path d="M22.8525 13.5064C23.1933 13.5059 23.5739 13.5064 24.001 13.5064C27.4186 13.5064 27.8242 13.5193 29.1738 13.5806C30.4214 13.6377 31.0986 13.8459 31.5498 14.0211C32.1471 14.2531 32.5737 14.5301 33.0215 14.9781C33.4695 15.4261 33.746 15.8534 33.9785 16.4507C34.1537 16.9014 34.3631 17.5788 34.4199 18.8267C34.4812 20.1759 34.4941 20.5818 34.4941 23.9976C34.4941 27.4129 34.4812 27.8185 34.4199 29.1675C34.3629 30.4154 34.1537 31.0928 33.9785 31.5435C33.7466 32.1407 33.4693 32.5666 33.0215 33.0142C32.5735 33.4622 32.1474 33.7393 31.5498 33.9713C31.0992 34.1472 30.4216 34.3556 29.1738 34.4127C27.8245 34.474 27.4186 34.4879 24.001 34.4879C20.5835 34.4879 20.1783 34.474 18.8291 34.4127C17.5811 34.3551 16.9036 34.1465 16.4521 33.9713C15.8549 33.7393 15.4284 33.4621 14.9805 33.0142C14.5325 32.5662 14.255 32.1401 14.0225 31.5425C13.8473 31.0919 13.6378 30.4144 13.5811 29.1666C13.5197 27.8175 13.5078 27.4116 13.5078 23.9937C13.5078 20.5758 13.5197 20.1721 13.5811 18.8228C13.6381 17.5751 13.8473 16.898 14.0225 16.4468C14.2545 15.8495 14.5325 15.4231 14.9805 14.9752C15.4285 14.5272 15.8549 14.2497 16.4521 14.0172C16.9034 13.8411 17.5811 13.6331 18.8291 13.5757C20.0097 13.5224 20.4674 13.5061 22.8525 13.5035V13.5064ZM23.6631 17.4351C20.19 17.6111 17.4277 20.4838 17.4277 24.0005C17.428 27.6304 20.3711 30.5717 24.001 30.5718C27.631 30.5718 30.573 27.6305 30.5732 24.0005C30.5732 20.3704 27.6311 17.4263 24.001 17.4263L23.6631 17.4351ZM30.834 15.6324C29.986 15.6324 29.2979 16.3193 29.2979 17.1675C29.2979 18.0155 29.986 18.7037 30.834 18.7037C31.6819 18.7036 32.3701 18.0155 32.3701 17.1675C32.3701 16.3196 31.6819 15.6315 30.834 15.6314V15.6324Z" fill="white"/>
<path d="M24.0011 19.7334C26.3574 19.7334 28.2678 21.6436 28.2678 24.0001C28.2678 26.3564 26.3574 28.2668 24.0011 28.2668C21.6445 28.2668 19.7344 26.3564 19.7344 24.0001C19.7344 21.6436 21.6445 19.7334 24.0011 19.7334V19.7334Z" fill="white"/>
</svg>
