<?xml version="1.0" encoding="UTF-8"?>
<!DOCTYPE svg PUBLIC "-//W3C//DTD SVG 1.1//EN" "http://www.w3.org/Graphics/SVG/1.1/DTD/svg11.dtd">
<!-- Creator: CorelDRAW 2017 -->
<svg xmlns="http://www.w3.org/2000/svg" xml:space="preserve" width="225.284mm" height="228.815mm" version="1.1" style="shape-rendering:geometricPrecision; text-rendering:geometricPrecision; image-rendering:optimizeQuality; fill-rule:evenodd; clip-rule:evenodd"
viewBox="0 0 2105.23 2138.24"
 xmlns:xlink="http://www.w3.org/1999/xlink">
 <defs>
  <style type="text/css">
   <![CDATA[
    .fil0 {fill:#44453D}
   ]]>
  </style>
 </defs>
 <g id="Layer_x0020_1">
  <metadata id="CorelCorpID_0Corel-Layer"/>
  <path class="fil0" d="M2077 0.04c-29.47,1.33 -23.92,6.36 -46.72,18.88 -65.14,35.78 -168.57,61.97 -240.5,75.24 -34.25,6.32 -66.39,11.61 -102.65,17.67 -118.49,19.82 -303.82,21.51 -428.57,28.09 -266.55,14.04 -457.07,13.61 -701.04,155.38 -371.42,215.83 -536.48,689.72 -513.41,1106.66 1.25,22.63 15.7,146.56 12.82,158.91 -4.75,20.3 -13.29,45.74 -19.12,66.46 -42.57,151.36 -48.74,306.07 -20.76,454.29 15.86,84.04 57.49,55.98 62.93,32.78 6.64,-28.34 -41.86,-151.81 -9.62,-329.35 18.6,-102.42 62.48,-146.79 133.35,-167.23 75.13,-21.66 137.38,-5.72 228.25,12.72 80.24,16.29 160,29.72 237.77,37.43 116.1,11.5 215.99,5.98 325.93,-15.61 97.01,-19.04 202.47,-45.64 289.53,-91.73 230.64,-122.12 429.47,-287.48 594.58,-604.83 141.04,-271.09 173.52,-568.81 216.9,-860.13 4.5,-30.23 24.93,-97.63 -19.65,-95.62zm-1968.89 1457.26c65.54,-112.46 135.21,-205.72 219.84,-297.75 26.99,-29.35 46.69,-79.33 62.99,-120.73 18.11,-46 28.99,-94.17 47.07,-140.85 33.08,-85.39 71.07,-171.31 126.31,-242.92 13.01,-16.87 24.23,-30.13 38.22,-44.86 12.04,-12.68 29.09,-33.47 46.65,-33.69 -10.6,27.78 -51.25,74.58 -70.05,103.48 -25.77,39.62 -41.73,74.1 -62.35,119.22 -40.13,87.83 -60.55,185.05 -100.15,276.67l158.99 -100.8c108.04,-69.86 177.42,-68.02 287.61,-214.02 61.96,-82.1 114.37,-174.75 172.59,-260.34 11.24,-16.53 24.66,-41.58 40.45,-45.9l-0.78 14.04c-3.8,14.62 -12.36,28.6 -19.26,41.82 -52.31,100.23 -139.17,265.34 -213.29,333.74 17.6,0.67 138.89,-53.95 173.84,-65.25 21.29,-6.89 38.1,-13.83 59.21,-22.04l177.23 -67.32c97.47,-37.07 193.42,-79.55 282.69,-132.38 52.87,-31.29 109.7,-63.92 161.82,-99.5 17.18,-11.73 36.29,-32.68 56.8,-29.72 -18.39,40.52 -138.65,120.44 -172.94,143.21 -41.86,27.8 -147.63,90.22 -191.16,108.4l-48.85 21.98c-51.97,20.49 -98.5,43.46 -151.21,62.06l-153.66 56.96c-17.07,6.01 -41.83,11.73 -51.94,22.35 44.8,0.53 92.19,0.53 138.06,5.97 97.96,11.62 181.06,15.62 276.93,6.33 28.65,-2.78 106.6,-19.49 131.66,-13.05 -18.47,29.28 -113.19,40.35 -153.36,48.88 -115.91,24.6 -236.89,-2.99 -353.65,-4.25 -89.73,-0.97 -163.37,12.46 -244.02,40.56 -47.87,16.68 -99.57,44.88 -143.03,68.66 -7.21,3.95 -8.33,3.75 -16.72,7.77l-52.71 30.63c-77.79,46.82 -197.7,133.17 -253.32,211.54 16.31,-1.95 59.14,-26.08 89.62,-35.42 33.54,-10.28 59.98,-16.32 98.59,-21.35 227.53,-29.65 374.77,47.73 554.47,40.87 25.96,-0.99 86.24,-8.14 109.03,1.15 -9.72,16.06 -49.45,18.82 -67.59,21.18 -90.18,11.73 -137.16,10.3 -233.38,-1.5 -231,-28.33 -394.51,-61.22 -586.42,75.57 -77.64,55.34 -158.98,187.58 -179.54,276.48 8.73,-1.43 58.03,-47.35 145.44,-56.03 115.2,-11.43 355.07,70.08 557.97,63.94 144.23,-4.37 309.81,-33.86 435.81,-99.15 73.38,-38.02 100.01,-52.06 171.5,-100.58 82.91,-56.27 171.12,-136.36 244.65,-222.87 165.93,-195.2 269.94,-470.53 322.14,-725.73 13.16,-64.34 26.38,-128.68 36.94,-193.23 6.37,-38.9 31.52,-160.25 29.63,-188.77 -10.48,2.55 -22.28,11.05 -33.11,15.56 -83.05,34.59 -182.45,61.46 -273.21,71.69 -55.79,6.29 -107.51,16.21 -164.17,19.03 -58.06,2.88 -113.16,7.74 -170.91,9.85 -222.69,8.14 -478.46,9.95 -659.98,78.95l-70.82 30.1c-365.91,159.12 -558.62,589.41 -567.2,976.94l3.98 174.42z"/>
 </g>
</svg>
