<svg width="51" height="51" viewBox="0 0 51 51" fill="none" xmlns="http://www.w3.org/2000/svg">
<path fill-rule="evenodd" clip-rule="evenodd" d="M23.9127 4.70257C21.772 5.05325 17.325 6.44496 15.4607 7.25535C12.5352 8.52701 9.59908 10.6232 7.5086 13.0058C4.26203 16.7066 2.31722 21.1349 1.42686 26.2367C0.7212 30.2804 0.857756 33.4903 1.31678 37.5958C1.39315 38.2789 1.42376 38.0993 1.22133 38.6693C0.198537 41.5497 0.129915 45.3987 0.566069 48.4498C0.665993 49.1489 0.708989 50.349 1.41275 50.3934C2.62043 50.4696 2.25496 49.1193 2.1915 48.6546C1.74658 45.402 1.28652 39.5796 4.89631 38.1544C7.93391 36.9551 11.0694 38.287 14.3395 38.755C17.394 39.1921 21.5907 39.1847 24.5546 38.5575C26.8475 38.0722 28.6967 37.543 30.827 36.6218C31.3614 36.3908 32.3309 36.0749 32.5047 35.5242C32.6649 35.017 32.1224 33.8535 31.9528 33.4226C31.2979 31.7576 30.3035 28.8778 29.8228 27.2263C29.5426 26.2635 29.162 24.9641 28.9988 23.9723C28.9324 23.5687 28.9278 23.0876 28.8444 22.7098C28.7448 22.259 28.6131 22.1008 28.1114 22.0652C27.1892 21.9996 26.1043 22.6422 24.7879 22.9051C21.6867 23.525 19.2863 21.0609 19.3045 17.6591C19.318 15.1428 21.6723 12.8 24.0326 12.78C24.6084 12.7752 24.866 12.9398 25.2858 12.9866C25.7476 13.038 25.8629 12.7045 25.911 12.2782C25.9628 11.8209 25.1137 7.16282 24.9895 6.30599C24.8917 5.63061 24.8762 4.90741 24.4725 4.754C24.2644 4.67489 24.1136 4.66921 23.9124 4.70223L23.9127 4.70257ZM10.0922 28.5397C11.4968 28.2867 12.1875 27.9842 13.8733 27.9388C15.353 27.8989 16.6462 28.0055 18.0712 28.1694C20.166 28.4104 21.9328 28.7901 24.0329 28.7808C24.6122 28.7783 25.7645 28.6206 26.1711 28.882C25.9014 29.956 22.2971 30.0052 21.3752 30.0033C19.3446 30.0014 17.2971 29.4765 15.1738 29.4714C12.0982 29.4635 9.39665 29.9944 7.55572 31.4827C6.65469 32.2113 5.9523 33.038 5.22102 33.991C4.86432 34.4558 3.52576 36.471 3.49704 37.0635C4.48578 36.3905 6.25706 36.0293 7.79134 36.0283C11.0632 36.0262 14.6628 37.6482 19.8417 37.431C23.0978 37.2945 27.7174 36.4357 30.6949 34.8363C29.7256 32.4326 28.7075 29.396 27.976 26.8295C27.7867 26.1651 27.3118 24.5894 27.2817 23.9173C26.6024 24.0562 26.2496 24.3065 25.1636 24.463C24.2228 24.5985 23.7725 24.7356 22.7881 24.5144C21.868 24.3077 20.8199 23.7639 20.139 23.2065C19.8384 22.9603 19.6867 22.756 19.4261 22.5596L16.9129 23.8273C16.4897 24.071 16.1251 24.2609 15.6927 24.4988C14.5963 25.1021 10.7902 27.5585 10.0922 28.5395V28.5397ZM2.60719 35.0318C2.74994 34.947 2.90042 34.639 3.00035 34.4832L4.23503 32.708C4.82115 31.9189 5.35689 31.1386 5.95798 30.4157C7.52648 28.5294 8.05912 28.0288 9.06162 25.5437C9.83555 23.6252 9.99739 22.3801 10.5058 21.0233C10.6919 20.5269 10.8857 20.0959 11.0886 19.6017C11.4799 18.6482 11.8954 17.7798 12.3744 16.9293C13.9228 14.18 14.6135 14.6031 14.3357 15.4011C14.2566 15.6286 14.1574 15.8197 14.0389 16.0529L12.4375 20.1235C11.9756 21.4195 11.5009 23.1151 11.1261 24.4812C10.9844 24.9979 10.7952 25.4882 10.6759 25.9199L12.5104 24.6238C13.1681 24.1888 13.7381 23.8253 14.4203 23.4034C15.0938 22.987 15.6956 22.6492 16.4049 22.2569C16.7628 22.059 17.0512 21.9044 17.4399 21.7033C17.6184 21.611 17.7632 21.543 17.9546 21.4496C18.0625 21.397 18.1405 21.3631 18.2339 21.3158L18.5009 21.145C18.0692 19.9112 17.7192 19.0759 17.7737 17.5989C17.8203 16.3372 18.2771 15.1672 18.7784 14.3547C19.5402 13.1204 20.8787 11.9791 22.2909 11.4908C22.9499 11.2629 23.4052 11.2564 24.1268 11.1391C24.257 10.5867 23.5565 7.14081 23.3677 6.51461C22.6299 6.74507 21.7127 6.89848 20.9257 7.11105C20.1038 7.33292 19.3474 7.55357 18.5672 7.8229C14.9268 9.07977 12.9782 10.1796 10.1811 12.6117L9.03892 13.7674C8.48633 14.4271 8.17143 14.7283 7.61471 15.4768C4.72347 19.3629 3.17715 24.004 2.60908 29.0768C2.47803 30.2477 2.4211 32.2763 2.51518 33.4936C2.55095 33.9566 2.61837 34.5859 2.60702 35.032L2.60719 35.0318Z" fill="white"/>
<path fill-rule="evenodd" clip-rule="evenodd" d="M27.8099 13.8947C27.2733 14.1181 26.6815 14.2459 26.0188 14.0761C24.2355 13.6192 22.2315 14.3945 21.3768 15.952C20.2298 18.0419 21.2877 20.918 23.5732 21.6593C25.255 22.2048 25.8494 21.3876 27.3354 21.3784C28.3064 21.3726 29.2754 21.4197 30.2514 21.4421C30.3062 23.6574 31.4295 28.0573 33.1953 33.7707C33.1989 33.7855 33.204 33.8015 33.2102 33.819L33.2104 33.8195C33.2395 33.9021 33.2931 34.0195 33.3407 34.218C33.4095 34.5052 33.3708 34.5415 33.5427 34.7252C33.8701 35.0757 34.0682 34.917 34.4485 34.6961C36.394 33.566 37.7756 32.4448 39.3098 30.8732C39.935 30.2329 42.6352 26.9425 43.1178 26.0004C44.3373 23.6199 44.8056 23.327 46.0216 20.2217C46.5609 18.8442 47.0853 17.3991 47.5333 15.947C48.4539 12.9632 49.114 9.78201 49.667 6.5019C49.9428 4.86564 50.1891 3.2022 50.435 1.5403C50.7807 -0.794395 47.9101 1.12049 46.9936 1.40977C42.7069 2.76243 42.1012 2.9198 37.4722 3.46344C35.7534 3.66535 33.8607 3.81962 32.1217 3.89822C30.4211 3.97527 28.4087 4.08483 26.7675 4.33816C26.0223 4.45322 26.2427 4.72083 26.5614 6.44532C26.7128 7.26363 26.8478 8.084 26.9919 8.90935C27.2422 10.3422 27.8116 12.4579 27.8097 13.8943L27.8099 13.8947ZM31.8287 21.445C33.1652 21.4106 34.4673 21.2816 35.7011 21.004C36.2717 20.8757 36.8929 20.6933 37.3645 20.4829C37.632 20.3636 37.8899 20.2533 38.1156 20.1099C38.3663 19.9505 38.6417 19.8392 38.6659 19.5506C38.3514 19.3096 37.7769 19.5091 37.3862 19.5594C34.4929 19.9314 32.9094 20.0387 29.9337 19.8994C29.01 19.8562 27.8451 19.7504 26.9458 19.8167L30.0969 18.1785C32.8623 16.901 37.0202 14.4861 39.3217 12.6328C39.8686 12.1924 42.4828 9.93198 42.2886 9.13741C41.7243 8.96766 40.6309 10.0056 40.2346 10.2995C39.584 10.7821 38.9721 11.2416 38.3061 11.7392C37.0149 12.7039 35.6027 13.4362 34.1888 14.2949C32.1707 15.5206 27.6114 17.8669 25.4191 18.8697L23.7175 19.6569C23.4459 19.7833 23.416 19.7668 23.2323 19.5819C21.6471 17.9872 22.6589 15.9425 24.3686 15.6388C25.6231 15.4159 26.1048 16.0866 27.2841 15.7757C30.0216 15.0539 29.583 14.3176 29.1455 11.5989L28.1157 5.91045C29.8039 5.61343 31.8558 5.62633 33.6096 5.45675C39.0192 4.93409 41.2304 4.9917 46.4312 3.26411L48.6878 2.47332C48.3948 4.1605 48.196 5.8248 47.8897 7.4989C47.5875 9.15013 47.2659 10.7661 46.8897 12.3475C45.8905 16.5486 44.112 21.3176 41.9409 24.8818C41.4932 25.6167 40.0368 27.5075 39.4583 28.2458C38.0733 30.0135 36.3875 31.4114 34.5515 32.7109C33.3124 28.973 32.3346 25.2213 31.8288 21.4447L31.8287 21.445Z" fill="#44453D"/>
</svg>
