<svg width="51" height="51" viewBox="0 0 51 51" fill="none" xmlns="http://www.w3.org/2000/svg">
<g clip-path="url(#clip0_349_124)">
<path fill-rule="evenodd" clip-rule="evenodd" d="M23.9127 4.70245C21.772 5.05313 17.325 6.44484 15.4607 7.25523C12.5352 8.52689 9.59908 10.6231 7.5086 13.0057C4.26203 16.7065 2.31722 21.1348 1.42686 26.2366C0.7212 30.2803 0.857756 33.4902 1.31678 37.5957C1.39315 38.2788 1.42376 38.0992 1.22133 38.6692C0.198537 41.5496 0.129915 45.3986 0.566069 48.4497C0.665993 49.1488 0.708989 50.3489 1.41275 50.3933C2.62043 50.4695 2.25496 49.1192 2.1915 48.6545C1.74658 45.4019 1.28652 39.5795 4.89631 38.1543C7.93391 36.955 11.0694 38.2869 14.3395 38.7549C17.394 39.192 21.5907 39.1846 24.5546 38.5574C26.8475 38.0721 28.6967 37.5429 30.827 36.6217C31.3614 36.3907 32.3309 36.0748 32.5047 35.5241C32.6649 35.0169 32.1224 33.8534 31.9528 33.4225C31.2979 31.7575 30.3035 28.8777 29.8228 27.2262C29.5426 26.2634 29.162 24.964 28.9988 23.9722C28.9324 23.5686 28.9278 23.0875 28.8444 22.7097C28.7448 22.2589 28.6131 22.1007 28.1114 22.0651C27.1892 21.9995 26.1043 22.6421 24.7879 22.905C21.6867 23.5249 19.2863 21.0608 19.3045 17.659C19.318 15.1427 21.6723 12.7999 24.0326 12.7799C24.6084 12.7751 24.866 12.9397 25.2858 12.9865C25.7476 13.0379 25.8629 12.7044 25.911 12.2781C25.9628 11.8208 25.1137 7.1627 24.9895 6.30587C24.8917 5.63049 24.8762 4.90729 24.4725 4.75388C24.2644 4.67477 24.1139 4.66943 23.9127 4.70245ZM10.0922 28.5396C11.4968 28.2866 12.1875 27.9841 13.8733 27.9387C15.353 27.8988 16.6462 28.0054 18.0712 28.1693C20.166 28.4103 21.9328 28.79 24.0329 28.7807C24.6122 28.7782 25.7645 28.6205 26.1711 28.8819C25.9014 29.9559 22.2971 30.0051 21.3752 30.0032C19.3446 30.0013 17.2971 29.4764 15.1738 29.4713C12.0982 29.4634 9.39665 29.9943 7.55572 31.4826C6.65469 32.2112 5.9523 33.0379 5.22102 33.9909C4.86432 34.4557 3.52576 36.4709 3.49704 37.0634C4.48578 36.3904 6.25706 36.0292 7.79134 36.0282C11.0632 36.0261 14.6628 37.6481 19.8417 37.4309C23.0978 37.2944 27.7174 36.4356 30.6949 34.8362C29.7256 32.4325 28.7075 29.3959 27.976 26.8294C27.7867 26.165 27.3118 24.5893 27.2817 23.9172C26.6024 24.0561 26.2496 24.3064 25.1636 24.4629C24.2228 24.5984 23.7725 24.7355 22.7881 24.5143C21.868 24.3076 20.8199 23.7638 20.139 23.2064C19.8384 22.9602 19.6867 22.7559 19.4261 22.5595L16.9129 23.8272C16.4897 24.0709 16.1251 24.2608 15.6927 24.4987C14.5963 25.102 10.7902 27.5586 10.0922 28.5396ZM2.60719 35.0317C2.74994 34.9469 2.90042 34.6389 3.00035 34.4831L4.23503 32.7079C4.82115 31.9188 5.35689 31.1385 5.95798 30.4156C7.52648 28.5293 8.05912 28.0287 9.06162 25.5436C9.83555 23.6251 9.99739 22.38 10.5058 21.0232C10.6919 20.5268 10.8857 20.0958 11.0886 19.6016C11.4799 18.6481 11.8954 17.7797 12.3744 16.9292C13.9228 14.1799 14.6135 14.603 14.3357 15.401C14.2566 15.6285 14.1574 15.8196 14.0389 16.0528L12.4375 20.1234C11.9756 21.4194 11.5009 23.115 11.1261 24.4811C10.9844 24.9978 10.7952 25.4881 10.6759 25.9198L12.5104 24.6237C13.1681 24.1887 13.7381 23.8252 14.4203 23.4033C15.0938 22.9869 15.6956 22.6491 16.4049 22.2568C16.7628 22.0589 17.0512 21.9043 17.4399 21.7032C17.6184 21.6109 17.7632 21.5429 17.9546 21.4495C18.0625 21.3969 18.1405 21.363 18.2339 21.3157L18.5009 21.1449C18.0692 19.9111 17.7192 19.0758 17.7737 17.5988C17.8203 16.3371 18.2771 15.1671 18.7784 14.3546C19.5402 13.1203 20.8787 11.979 22.2909 11.4907C22.9499 11.2628 23.4052 11.2563 24.1268 11.139C24.257 10.5866 23.5565 7.14069 23.3677 6.51449C22.6299 6.74495 21.7127 6.89836 20.9257 7.11093C20.1038 7.3328 19.3474 7.55345 18.5672 7.82278C14.9268 9.07965 12.9782 10.1795 10.1811 12.6116L9.03892 13.7673C8.48633 14.427 8.17143 14.7282 7.61471 15.4767C4.72347 19.3628 3.17715 24.0039 2.60908 29.0767C2.47803 30.2476 2.4211 32.2762 2.51518 33.4935C2.55095 33.9565 2.61854 34.5856 2.60719 35.0317Z" fill="white"/>
<path fill-rule="evenodd" clip-rule="evenodd" d="M27.8099 13.8947C27.2733 14.1181 26.6815 14.2459 26.0188 14.0761C24.2355 13.6192 22.2315 14.3945 21.3768 15.952C20.2298 18.0419 21.2877 20.918 23.5732 21.6593C25.255 22.2048 25.8494 21.3876 27.3354 21.3784C28.3064 21.3726 29.2754 21.4197 30.2514 21.4421C30.3062 23.6574 31.4295 28.0573 33.1953 33.7707C33.1989 33.7855 33.204 33.8015 33.2102 33.819C33.2393 33.9016 33.2931 34.0195 33.3407 34.218C33.4095 34.5052 33.3708 34.5415 33.5427 34.7252C33.8701 35.0757 34.0682 34.917 34.4485 34.6961C36.394 33.566 37.7756 32.4448 39.3098 30.8732C39.935 30.2329 42.6352 26.9425 43.1178 26.0004C44.3373 23.6199 44.8056 23.327 46.0216 20.2217C46.5609 18.8442 47.0853 17.3991 47.5333 15.947C48.4539 12.9632 49.114 9.78201 49.667 6.5019C49.9428 4.86564 50.1891 3.2022 50.435 1.5403C50.7807 -0.794394 47.9101 1.12049 46.9936 1.40977C42.7069 2.76243 42.1012 2.9198 37.4722 3.46344C35.7534 3.66535 33.8607 3.81962 32.1217 3.89822C30.4211 3.97527 28.4087 4.08483 26.7675 4.33816C26.0223 4.45322 26.2427 4.72083 26.5614 6.44532C26.7128 7.26363 26.8478 8.084 26.9919 8.90935C27.2422 10.3422 27.8118 12.4583 27.8099 13.8947ZM31.8287 21.445C33.1652 21.4106 34.4673 21.2816 35.7011 21.004C36.2717 20.8757 36.8929 20.6933 37.3645 20.4829C37.632 20.3636 37.8899 20.2533 38.1156 20.1099C38.3663 19.9505 38.6417 19.8392 38.6659 19.5506C38.3514 19.3096 37.7769 19.5091 37.3862 19.5594C34.4929 19.9314 32.9094 20.0387 29.9337 19.8994C29.01 19.8562 27.8451 19.7504 26.9458 19.8167L30.0969 18.1785C32.8623 16.901 37.0202 14.4861 39.3217 12.6328C39.8686 12.1924 42.4828 9.93198 42.2886 9.13741C41.7243 8.96766 40.6309 10.0056 40.2346 10.2995C39.584 10.7821 38.9721 11.2416 38.3061 11.7392C37.0149 12.7039 35.6027 13.4362 34.1888 14.2949C32.1707 15.5206 27.6114 17.8669 25.4191 18.8697L23.7175 19.6569C23.4459 19.7833 23.416 19.7668 23.2323 19.5819C21.6471 17.9872 22.6589 15.9425 24.3686 15.6388C25.6231 15.4159 26.1048 16.0866 27.2841 15.7757C30.0216 15.0539 29.583 14.3176 29.1455 11.5989L28.1157 5.91045C29.8039 5.61343 31.8558 5.62633 33.6096 5.45675C39.0192 4.93409 41.2304 4.9917 46.4312 3.26411L48.6878 2.47332C48.3948 4.1605 48.196 5.8248 47.8897 7.4989C47.5875 9.15013 47.2659 10.7661 46.8897 12.3475C45.8905 16.5486 44.112 21.3176 41.9409 24.8818C41.4932 25.6167 40.0368 27.5075 39.4583 28.2458C38.0733 30.0135 36.3875 31.4114 34.5515 32.7109C33.3124 28.973 32.3345 25.2216 31.8287 21.445Z" fill="#827875"/>
</g>
<defs>
<clipPath id="clip0_349_124">
<rect width="51" height="51" fill="white"/>
</clipPath>
</defs>
</svg>
