<?xml version="1.0" encoding="UTF-8"?>
<!DOCTYPE svg PUBLIC "-//W3C//DTD SVG 1.1//EN" "http://www.w3.org/Graphics/SVG/1.1/DTD/svg11.dtd">
<!-- Creator: CorelDRAW 2017 -->
<svg xmlns="http://www.w3.org/2000/svg" xml:space="preserve" width="303.628mm" height="269.858mm" version="1.1" style="shape-rendering:geometricPrecision; text-rendering:geometricPrecision; image-rendering:optimizeQuality; fill-rule:evenodd; clip-rule:evenodd"
viewBox="0 0 5876.41 5222.83"
 xmlns:xlink="http://www.w3.org/1999/xlink">
 <defs>
  <style type="text/css">
   <![CDATA[
    .fil0 {fill:#44453D}
   ]]>
  </style>
 </defs>
 <g id="Layer_x0020_1">
  <metadata id="CorelCorpID_0Corel-Layer"/>
  <path class="fil0" d="M1415.99 3279.34c43.48,-83.17 84.02,-163.17 116.31,-245.38 44.43,-113.15 30.42,-123.29 119.22,-206.85 104.19,-98.03 220.29,-175.42 324.36,-280.6 239.62,-242.17 365.67,-538.89 366.62,-854.58 0.77,-257.7 -101.45,-545.79 -246.26,-752.27 -119.03,-169.72 -264.22,-325.23 -384.05,-498.52 -16.01,-23.15 -91.7,-192.11 -125.03,-157.5l-27.79 50.53c-6.68,19.68 -12.01,44.2 -19.61,67.87 -169.66,528.88 -573.39,820.86 -496.14,1461.16 10.5,87.04 16.35,148.9 42.54,224.89 53.54,155.31 122.82,273.52 213.37,412.45 57.02,87.5 212.53,313.58 196.33,418.33 -19.82,128.14 -193.59,418.28 -289.06,514.93 -60.38,61.12 -120.5,127.51 -180.67,192 -57.99,62.16 -119.89,131.09 -173.17,199.05 -42.27,53.92 -132.52,180.42 -173.34,213.84 5.76,-49.6 11.85,-91.14 16.77,-137.95 9.2,-87.48 -3.12,-59 43.48,-141.39 166.25,-293.93 298.76,-583.35 213.6,-900.06 -36.65,-136.31 -159.81,-333 -316.49,-449.42 -89.15,-66.25 -194.28,-122.14 -289.9,-182.95 -100.98,-64.21 -330.5,-266.87 -288.44,-113.73 83.35,303.49 -101.11,647.22 -49.3,942.02 49.66,282.56 208.82,435.62 436.32,597.79 89.28,63.64 167.18,99.42 174.77,191.42 12.37,149.8 -67.82,377.27 -150.64,543.18 -89.55,179.41 -156.77,380.84 -192.72,562.33 -12.97,65.49 -43.28,212.69 -13.54,249.25 33.55,41.25 81.72,23.72 102.26,-15.73 16.38,-31.47 19.96,-380.7 148.53,-674.24 142.93,-326.31 444.14,-728.4 693.76,-856.03 78.36,-40.07 136.51,-58.86 218.49,-77.86 238.89,-55.35 277.31,52.62 376.48,243.46 37.51,72.19 63.46,139.83 106.29,213.88 170.9,295.44 474.08,544.1 880.8,588.42 274.81,29.95 476.49,4.37 743.46,2.58 86.45,-0.58 235.72,43.3 252.09,8.34 6.67,-43.73 -71.4,-130.96 -99.73,-175.64 -136.4,-215.11 -200.44,-573.58 -503.19,-876.19 -220.52,-220.42 -531.22,-362.06 -844.28,-338.1 -201.41,15.42 -384.12,94.8 -567.09,176.32 -106.88,47.61 -62.89,46.41 -190.51,55.21 -154.25,10.65 -384.61,94.1 -385.72,94.13 60.02,-71.21 151.57,-138.52 226.11,-192.91 228.25,-166.52 485.07,-325.16 732.08,-445.22 208.17,-101.18 443.72,-130.32 687.31,-121.17 41.81,1.57 108.94,0.44 149.87,8.07 187.5,34.97 336.42,466.63 543.24,693.48 142.85,156.69 365.14,291.04 589.1,328.69 230.42,38.74 384.66,11.51 576.31,-25.88 98.02,-19.12 183.83,-34.69 277.24,-53.59 37.46,-7.58 262.57,-40.44 272.82,-65.36 3.72,-52.45 -85.77,-109.62 -122.62,-152.28 -47.9,-55.46 -78.61,-102.28 -115.72,-159.98 -145.11,-225.6 -301.14,-452.87 -539.26,-604.15 -414.51,-263.34 -776.82,-245.04 -1189.4,-78.46 -39.11,15.79 -135.8,49.82 -176.16,50.45 -61.34,0.96 -138.73,-14.45 -204.24,-17.35 -67.23,-2.98 -135.84,-8.89 -200.34,-5.47 -52.97,2.81 -147.53,13.8 -195.32,9.92 94.98,-53.6 306.28,-126.86 418.42,-180.77 142.84,-68.67 332.34,-133.14 467.07,-203.08l160.14 -69c79.48,-35.26 121.54,-77.49 223.09,-48.08 177.31,51.35 346.87,124.27 530.72,144.34 348.1,38 599.71,-13.71 881.63,-226.25 371.2,-279.84 439.1,-530.13 610.08,-691.13 23.06,-21.72 80.48,-63.14 79.03,-97.34 -22.8,-32.45 -73.26,-17.51 -101.54,-16.22 -184.72,8.4 -565.94,-116.44 -801.64,-132.24 -278.66,-18.67 -569.45,74.28 -780.77,252.95 -333.92,282.33 -349.19,515.92 -442.26,614.8 -27.79,29.52 -142.85,82.14 -184.58,102.52 -125.4,61.26 -249.66,116.26 -375.88,170.47 -85.04,36.53 -292.98,129.92 -380.16,156.73 40.82,-56.4 81.23,-100.92 123.17,-167.18 44.9,-70.93 59.86,-122.94 125.73,-170.2 217,-155.71 392.8,-207.46 576.42,-440.93 454.55,-577.94 209.64,-1042.19 -52.01,-1578.56 -40.41,-82.83 -37.47,-143.7 -76.23,-157.37 -31.82,18.42 -63.43,80.54 -93.18,117.38 -30.73,38.06 -62.97,73.22 -96.29,107.66 -207.34,214.33 -420.24,418.25 -542.76,709.99 -164.24,391.1 -90.58,775.73 57.55,1042.59 27.72,49.94 101.18,184.35 87.27,235.34 -15.56,57.05 -136.88,211.3 -177.41,251.65 -127.08,126.53 -294.64,213.55 -438.46,288.08 -262.55,136.07 -524.47,290.2 -775.76,452.35 -26.05,16.81 -89.32,65.08 -111.59,74.29zm134.32 -527.51c26.07,-65.2 50.34,-213.58 43.11,-272.38 -26.38,-214.53 -312.7,-558.12 -329.98,-670.6 31.96,19.86 167.51,227.24 197.27,272.18l168.61 281.99c0.93,-42.68 12.08,-101.48 16.86,-150.37 20.23,-207.34 32.05,-253.9 -44.5,-437.57 -56.53,-135.62 -238.21,-405.72 -229.29,-527.28 31.27,26.89 99.06,201.15 146.54,279.82 38.57,63.91 87.83,138.52 118.44,204.95 11.63,25.25 19.45,48.79 31.25,70.21 13.78,-59.53 17.55,-185.85 16.83,-243.9 -0.58,-46.66 2.79,-79.27 2.75,-123.01l-4.83 -359.33c-0.73,-50.02 -18.65,-203.23 9.08,-244.45 34.19,66.97 48.07,531.02 48.66,652.34 0.27,54.67 -8.05,186.6 3.21,228.48 43.59,-83.8 82.88,-167.71 124.61,-251.92 27.12,-54.73 73.52,-204.62 102.44,-232.34 6.02,2.77 6.17,0.22 7.63,14.17 2.56,24.45 -17.22,78.93 -25.46,100.28 -60.9,157.72 -111.29,263.16 -175.69,415.98 -53.85,127.79 -46.99,235.76 -55.86,367.46 -1.74,25.85 -14.07,102.81 -3.22,124.48 22.42,-39.15 69.18,-86.38 98.27,-121.95 89.17,-109.07 111.97,-150.98 187.84,-261.35 29.55,-42.99 55.27,-120.05 91.23,-155.14 10.66,13.55 7.76,4.76 5.54,23.5 -0.55,4.67 -9.87,28.96 -12.12,34.17 -68.7,159.22 -175.55,302.08 -277.47,435.65 -160.73,210.63 -117.82,308.6 -178.43,518.47 23.87,-11.36 100.1,-75.57 128.97,-99.75 133.2,-111.57 270.24,-228.33 356.83,-395.62 229.83,-444.02 164.36,-876.27 -108.36,-1266.13l-400.58 -517.95 -62.94 163.3c-46.59,129.25 -206.34,355.69 -269.75,487.13 -191.29,396.51 -232.45,778.38 -21.92,1170.24 41.7,77.62 96.22,162.33 146.67,241.5l147.77 244.75zm-930.48 921.21c15.94,-32.62 -12.16,-178.21 -20.22,-213.51 -19.37,-84.9 -31.53,-116.4 -87.77,-194.45 -68.01,-94.39 -278.1,-259.17 -289.45,-354.56 22.13,11.63 297.81,276.79 325.78,313.03 3.79,-18.18 2.42,0.08 -1.21,-20.96l-99.4 -348.55c-20.37,-60.16 -36.88,-120.91 -63.41,-182.18 -15.62,-36.07 -72.94,-144.31 -68.91,-178.74 93.75,52.81 221.39,448.67 264.05,586.97 4.9,15.89 10.95,24.54 15.77,40.21 5.38,17.5 2.54,24.37 12.58,45.35 10.63,-67.92 17.98,-130.89 32.59,-202.58 14.3,-70.18 16.34,-187.12 33.74,-198.58 32.91,32.79 13.37,162.7 5.04,221.27 -21.76,153.05 -36.22,314.52 -8.67,460.84l32.66 216.09c197.74,-340.29 248.52,-590.56 137.15,-857.35 -144.02,-344.99 -373.33,-393.23 -672.27,-601.45 -8.71,31.84 -0.43,136.01 -10.03,201.99 -60.88,418.63 -201.48,783.99 265.92,1132.56 28.18,21.01 185.79,123.2 196.07,134.59zm3320.28 -1767.56l-76.64 152.78c19.88,-4.02 63.27,-20.1 86.62,-29.79 123.51,-51.22 121.69,-32.39 236.31,-176.82 27.63,-34.82 228.95,-292.75 266.77,-316.76 19.08,-12.11 8.19,-6.46 24.6,-8.17 -57.33,95.56 -215.92,281.76 -296.39,415.96 41.16,-5.45 349.15,-128.45 400.73,-171.45 95.13,-79.3 235.9,-351.04 346.72,-354.91 -31.14,48.33 -158.68,133.29 -261.05,334.6l194.14 -71.39c79.4,-30.11 539.39,-181.57 616.09,-158.26 -26.88,29.45 -148.61,60.24 -191.92,72.26l-383.58 130.51c-64.05,28.37 -129.62,45.19 -195.33,77.62 47.12,13.03 414.38,57.56 480.21,69.88 -31.08,21.66 -70.42,17.59 -114.33,16.08 -47.85,-1.64 -75.9,-4 -124.35,-7.78 -85.23,-6.65 -169.54,-21.42 -251.75,-23.07 -88.87,-1.78 -162.03,18 -228.83,46.76 -61.5,26.48 -159.4,54.98 -212.64,90.88 83.75,27.04 164.81,52.11 247.2,73.46l181.32 40.04c17.65,3.83 41.51,7.01 53.14,22.16 -64.27,22.02 -388.12,-63.52 -485.41,-82.19 -88.33,-16.96 -156.34,1.51 -219.33,29.36 -61.92,27.38 -150.34,47.83 -204.35,84.64 158.21,83.2 427.05,131.79 581.87,148.94 183.4,20.31 374.81,-31.08 505.05,-88.1 370.89,-162.39 563.8,-488.63 800.97,-792.81 -165.58,-18.99 -344.3,-60.73 -516.45,-97.79 -253.72,-54.63 -481.66,-42.26 -706.26,48.09 -53.68,21.59 -153.14,78.29 -204.75,117.64 -135.82,103.56 -266.78,244.87 -348.39,407.63zm-954.07 180.31c32.77,-66.1 87.06,-176.5 65.41,-231.8 -44.96,-114.85 -207.58,-461.24 -172.08,-575.25 18.3,22.79 35.44,89.97 46.44,128.64 12.86,45.22 30.68,89.14 45.91,127.39 17.4,43.69 91.73,224.95 120.25,249.06 23.64,-24.3 89.68,-225.86 93.14,-263.9 11.11,-122.02 -192.05,-476.77 -108.24,-713.63 27.96,33.73 14.16,184.87 41.27,298.38 11.33,47.41 78.16,250.03 104.82,279.68 26.72,-68.76 158.02,-632.14 174.65,-713.09 11.56,-56.26 35.4,-188.34 69.75,-238.56 21.53,69.54 -75.77,483.76 -95.71,582.84 -6.2,30.8 -13.1,67.22 -20.9,98.52 -4.66,18.73 -7.61,31.95 -11.54,49.47l-9.38 54.83c48.01,-56.04 98.72,-111.02 149.5,-166.53 52.34,-57.21 100.95,-118.1 152.44,-161.24 2.67,17.95 5.43,18.47 -13.85,42.79 -12.36,15.59 -19.18,25.38 -31.47,42.17 -23.18,31.66 -44.38,57.84 -68.53,85.18 -88.29,99.97 -211.83,242.45 -245.13,374.21 -18.57,73.46 -30.81,142.02 -52.08,211.58 21.95,-9.36 72.93,-64.81 96.14,-87.19 80.53,-77.63 105.99,-96.41 190.51,-161.56 37,-28.52 74.01,-62.52 102.29,-54.18 -15.14,32.07 -122.74,109.68 -155.59,138.72 -92.02,81.33 -242.51,233.78 -292.61,345.58 -15.62,34.85 -28.74,77.46 -42.25,115.4 -13.98,39.27 -38.01,89.98 -33.82,116.43 62.09,-56.5 246.65,-109.87 443.39,-320.58 142.59,-152.72 253.72,-378.54 269.2,-580.13 23.69,-308.36 -74.36,-512.81 -194.91,-759.29 -36.99,-75.62 -71.03,-162.05 -117.5,-236.17 -22.7,12.29 -74.77,81.36 -93.77,102.64 -88.75,99.36 -167.77,161.53 -286.69,300.63 -125.61,146.93 -256.4,342.07 -310.12,543.1 -84.68,316.9 -12.75,594.7 129.52,862.29 16.02,30.13 40.29,87.08 61.51,113.58zm270.93 707.85c255.36,110.04 249.09,109.04 516.03,81.41 87.45,-9.06 403.19,-52.4 482.5,-1.59l-318.16 21.93c-60.11,7.8 -276.25,32.63 -313.28,50.87l305.47 149.9c66.5,28.72 150.11,30.38 211.65,29.79 90.17,-0.87 331.13,-17.85 419.44,44 -29.82,20.88 -57.35,3.35 -122.03,-5.73 -44.73,-6.28 -81.88,-5.98 -123.92,-5.53 -79.99,0.87 -149.08,12.24 -229.1,15.82l264.2 136.23c149.27,73.79 134.57,83.66 335.99,165.74l152.04 49.52c21.44,14.61 7.07,-4.19 14.1,17.53 -202.52,7.54 -534.38,-190.12 -769.26,-303.25 7.23,45.02 159.3,242.35 203.97,294.77l72 83.62c6.23,13.03 2.85,-0.73 4.68,15.71 -75.88,-13.41 -279.32,-303.91 -345.65,-381.24 -70.99,-82.77 -131.03,-108.23 -232.44,-157.02l-144.79 -66.76c3.35,8.59 0.71,2.95 7.01,15.07l26.77 52.79c10.8,23.29 21.85,43.83 34.75,69.85 45.59,91.95 87.6,178.18 143.91,267.49 21.13,33.52 73.81,99.59 77.83,131.25 -128.22,-70.86 -273.82,-492.23 -439.76,-601.04 -34.04,-22.32 -240.25,-94.19 -281.02,-101.35 191.26,281.37 287.71,614.96 669.02,806.68 341.86,171.88 629.11,89.34 932.56,36.28 53.03,-9.27 258.25,-47.43 288.64,-64.5 -2.79,-5.75 -127.08,-160.52 -167.77,-224.12 -25.03,-39.13 -47.34,-78.85 -73.34,-117.98 -25.54,-38.45 -54.11,-76.07 -83.53,-115.05 -290.64,-384.92 -685.48,-592.67 -1173.17,-502.92 -75.51,13.9 -307.22,88.65 -345.35,111.84zm-1417.67 695.16c281.69,86.26 215.71,88.31 499.69,47.19 63.44,-9.19 428.12,-52.46 477.72,7.89 -130.59,4.89 -154.6,-3.15 -309.11,10.03 -48.02,4.1 -101.12,13.76 -150.01,22.87 -20.98,3.91 -129.7,23.72 -146.86,34.91 191.66,95.06 288.95,182.94 484.56,200.97 70.71,6.52 147.92,8.95 219.6,18.81 43.37,5.96 210.64,42.98 233.12,75.28 -28.91,19.26 -144.12,-30.03 -246.78,-39.79l-226.89 -9.74c-9.28,1.21 -8.17,1.35 -14.65,3.41l538.15 375.99c51.03,36.58 143.05,89.24 181.64,127.67 -49.01,12.17 -166.25,-72.21 -206.12,-97.84l-382.49 -250.96c-65.33,-42.26 -135.93,-81.24 -199.52,-124.41 2.74,22.68 15.16,43.66 25.53,64.87 10.76,22 19.33,38.02 30.66,61.05 41.75,84.88 86.77,164.91 142.38,243.09 18.99,26.69 76.29,99.03 85.12,120.8 -38.16,1.51 -72.27,-48.5 -98.12,-81.34 -129.01,-163.86 -239.05,-433.6 -358.51,-506.45 -38.43,-23.44 -109.82,-59.21 -151.31,-78.12 -66.07,-30.1 -103.47,-46.64 -139.23,-46.47 -1.19,0 -3.57,0.05 -5.3,0.43 79.76,113.96 157.45,312.44 239.78,457.84 20.35,35.94 87.23,119.41 76.75,153.7 -171.12,-173.01 -251.83,-491 -415.93,-636.23 -45.47,-40.24 -71.57,-46.05 -131.19,-60.62 -37.03,-9.05 -107.32,-32.27 -140.51,-26.41 218.62,299.63 191.35,621.43 721.39,889.01 318.47,160.77 677.18,92.14 1018.4,95.02l142.76 -0.73c-17.69,-43.29 -46.99,-82.86 -65.58,-126.63 -19.14,-45.08 -39.47,-86.1 -58.45,-128.16 -39.92,-88.49 -68.7,-168.32 -117.03,-261.21 -94.36,-181.32 -181.66,-324.9 -368.5,-477.76 -277.33,-226.9 -616.07,-265.38 -921.48,-170.76 -86.05,26.66 -181.28,71.67 -263.69,112.76z"/>
 </g>
</svg>
