<svg width="48" height="48" viewBox="0 0 48 48" fill="none" xmlns="http://www.w3.org/2000/svg">
<path d="M24 0C37.2548 0 48 10.7452 48 24C48 37.2548 37.2548 48 24 48C10.7452 48 0 37.2548 0 24C0 10.7452 10.7452 0 24 0ZM35.8545 20.1602C35.8545 20.1602 26.3893 25.293 24.334 25.293C22.462 25.2922 12.8544 20.1814 12.8154 20.1602L12.7998 31.6797C12.7998 32.7394 13.661 33.5995 14.7217 33.5996H33.9473C35.0098 33.5994 35.8701 32.7394 35.8701 31.6797L35.8545 20.1602ZM14.7217 14.4004C13.66 14.4005 12.7998 15.2606 12.7998 16.3203V17.1758C12.8204 17.1874 22.4601 22.6525 24.334 22.6533C26.2966 22.6533 35.8302 17.294 35.8545 17.2803L35.8701 16.3203C35.8701 15.2606 35.0098 14.4006 33.9473 14.4004H14.7217Z" fill="white"/>
</svg>
