<svg width="50" height="50" viewBox="0 0 50 50" fill="none" xmlns="http://www.w3.org/2000/svg">
<path d="M6 40.5315L6.08914 31.9441H7.26286L9.16457 37.2183L11.0811 31.9441H12.2549L12.344 40.5315H11.0069V35.4058L9.41714 39.6846H8.92686L7.33714 35.4355V40.5315H6Z" fill="black"/>
<path d="M16.2856 40.6503C15.612 40.6503 15.092 40.5216 14.7256 40.2641C14.3591 39.9966 14.1016 39.6103 13.953 39.1052C13.8143 38.5901 13.745 37.9612 13.745 37.2183V35.2572C13.745 34.4945 13.8193 33.8606 13.9678 33.3555C14.1164 32.8503 14.3739 32.469 14.7404 32.2115C15.1168 31.954 15.6318 31.8252 16.2856 31.8252C17.0086 31.8252 17.5385 31.9738 17.8753 32.2709C18.2219 32.5681 18.4497 32.9989 18.5587 33.5635C18.6676 34.1181 18.7221 34.7867 18.7221 35.5692V36.2675H15.3347V37.9909C15.3347 38.3376 15.3644 38.6199 15.4238 38.8378C15.4932 39.0557 15.5972 39.2191 15.7358 39.3281C15.8844 39.4271 16.0726 39.4766 16.3004 39.4766C16.5381 39.4766 16.7164 39.4221 16.8353 39.3132C16.964 39.1943 17.0482 39.0309 17.0878 38.8229C17.1374 38.605 17.1621 38.3524 17.1621 38.0652V37.5452H18.7073V37.8721C18.7073 38.7338 18.524 39.4122 18.1576 39.9075C17.7911 40.4027 17.1671 40.6503 16.2856 40.6503ZM15.3347 35.4058H17.1621V34.6332C17.1621 34.2766 17.1423 33.9795 17.1027 33.7418C17.0631 33.4941 16.9789 33.3109 16.8501 33.1921C16.7313 33.0633 16.5381 32.9989 16.2707 32.9989C16.0132 32.9989 15.8151 33.0583 15.6764 33.1772C15.5476 33.2961 15.4585 33.4991 15.409 33.7863C15.3595 34.0637 15.3347 34.45 15.3347 34.9452V35.4058Z" fill="black"/>
<path d="M22.5092 40.6503C21.8059 40.6503 21.2711 40.5117 20.9046 40.2343C20.548 39.9471 20.3054 39.546 20.1766 39.0309C20.0578 38.5159 19.9983 37.9166 19.9983 37.2332V35.2572C19.9983 34.5341 20.0627 33.9201 20.1915 33.4149C20.3202 32.8999 20.5629 32.5086 20.9195 32.2412C21.2859 31.9639 21.8159 31.8252 22.5092 31.8252C23.1332 31.8252 23.6136 31.9292 23.9503 32.1372C24.297 32.3353 24.5347 32.6374 24.6635 33.0435C24.7922 33.4397 24.8566 33.9349 24.8566 34.5292V35.0343H23.4155V34.5143C23.4155 34.138 23.3907 33.8408 23.3412 33.6229C23.2917 33.405 23.2025 33.2465 23.0738 33.1475C22.945 33.0484 22.7618 32.9989 22.524 32.9989C22.2665 32.9989 22.0684 33.0583 21.9298 33.1772C21.7911 33.2961 21.697 33.4991 21.6475 33.7863C21.6079 34.0637 21.588 34.445 21.588 34.9303V37.6343C21.588 38.3673 21.6574 38.8576 21.796 39.1052C21.9347 39.3528 22.1823 39.4766 22.5389 39.4766C22.8063 39.4766 22.9995 39.4172 23.1183 39.2983C23.2471 39.1696 23.3263 38.9913 23.356 38.7635C23.3957 38.5357 23.4155 38.2781 23.4155 37.9909V37.2926H24.8566V37.8869C24.8566 38.4614 24.7873 38.9566 24.6486 39.3726C24.5199 39.7886 24.2821 40.1056 23.9355 40.3235C23.5987 40.5414 23.1233 40.6503 22.5092 40.6503Z" fill="black"/>
<path d="M25.6163 40.5315L27.2357 36.8915C26.9584 36.7825 26.7306 36.6191 26.5523 36.4012C26.3839 36.1833 26.2601 35.9159 26.1809 35.5989C26.1016 35.282 26.062 34.9254 26.062 34.5292C26.062 34.0736 26.1214 33.6823 26.2403 33.3555C26.3592 33.0286 26.5473 32.7612 26.8049 32.5532C27.0624 32.3452 27.4041 32.1917 27.83 32.0926C28.2559 31.9936 28.7809 31.9441 29.4049 31.9441H31.0689V40.5315H29.494V37.1441C29.3355 37.1441 29.2018 37.1441 29.0929 37.1441C28.9839 37.1341 28.8651 37.1242 28.7363 37.1143L27.3249 40.5315H25.6163ZM29.3157 36.2229C29.3355 36.2229 29.3653 36.2229 29.4049 36.2229C29.4544 36.2229 29.4841 36.2229 29.494 36.2229V32.8503C29.4841 32.8503 29.4544 32.8503 29.4049 32.8503C29.3653 32.8503 29.3405 32.8503 29.3306 32.8503C28.8651 32.8503 28.4936 32.9098 28.2163 33.0286C27.9489 33.1376 27.7607 33.3159 27.6517 33.5635C27.5428 33.8012 27.4883 34.1231 27.4883 34.5292C27.4883 35.0938 27.6121 35.5147 27.8597 35.7921C28.1173 36.0694 28.6026 36.213 29.3157 36.2229Z" fill="black"/>
<path d="M37.8087 42.7155L37.675 40.5315H32.683V31.9441H34.2727V39.4023H36.3378V31.9441H37.9275V39.4023H38.9675V42.7155H37.8087Z" fill="black"/>
<path d="M41.2155 40.6503C40.8787 40.6503 40.5816 40.5562 40.3241 40.3681C40.0665 40.17 39.8635 39.9223 39.7149 39.6252C39.5663 39.3181 39.4921 38.9962 39.4921 38.6595C39.4921 38.1246 39.5812 37.674 39.7595 37.3075C39.9378 36.941 40.1804 36.634 40.4875 36.3863C40.8044 36.1288 41.166 35.906 41.5721 35.7178C41.9881 35.5296 42.4239 35.3463 42.8795 35.1681V34.5589C42.8795 34.2122 42.8597 33.925 42.8201 33.6972C42.7804 33.4694 42.6962 33.301 42.5675 33.1921C42.4486 33.0732 42.2654 33.0138 42.0178 33.0138C41.7999 33.0138 41.6216 33.0633 41.4829 33.1623C41.3542 33.2614 41.2601 33.405 41.2006 33.5932C41.1412 33.7715 41.1115 33.9844 41.1115 34.2321V34.6629L39.5366 34.6035C39.5564 33.6526 39.7743 32.9543 40.1903 32.5086C40.6063 32.053 41.2502 31.8252 42.1218 31.8252C42.9736 31.8252 43.5778 32.058 43.9343 32.5235C44.2909 32.989 44.4692 33.6625 44.4692 34.5441V38.4663C44.4692 38.7338 44.4742 38.9913 44.4841 39.2389C44.5039 39.4865 44.5237 39.7193 44.5435 39.9372C44.5732 40.1452 44.598 40.3433 44.6178 40.5315H43.1618C43.1321 40.373 43.0924 40.1749 43.0429 39.9372C43.0033 39.6896 42.9736 39.4667 42.9538 39.2686C42.8547 39.6054 42.6616 39.9223 42.3743 40.2195C42.097 40.5067 41.7107 40.6503 41.2155 40.6503ZM41.8395 39.2835C41.998 39.2835 42.1465 39.2389 42.2852 39.1498C42.4239 39.0606 42.5477 38.9616 42.6566 38.8526C42.7656 38.7338 42.8399 38.6397 42.8795 38.5703V36.1338C42.6319 36.2724 42.3991 36.4111 42.1812 36.5498C41.9633 36.6884 41.7702 36.837 41.6018 36.9955C41.4433 37.1441 41.3145 37.3174 41.2155 37.5155C41.1263 37.7037 41.0818 37.9216 41.0818 38.1692C41.0818 38.5159 41.1462 38.7882 41.2749 38.9863C41.4037 39.1844 41.5919 39.2835 41.8395 39.2835Z" fill="black"/>
<path d="M6.57117 26.6743V24.9371L11.2797 17.6C11.6302 17.0514 11.9502 16.541 12.2397 16.0686C12.5445 15.5962 12.7883 15.101 12.9712 14.5829C13.1693 14.0495 13.2683 13.44 13.2683 12.7543C13.2683 11.901 13.1312 11.2305 12.8569 10.7429C12.5826 10.2552 12.1026 10.0114 11.4169 10.0114C10.8378 10.0114 10.3883 10.1714 10.0683 10.4914C9.74831 10.8114 9.52736 11.2305 9.40545 11.7486C9.28355 12.2667 9.2226 12.8229 9.2226 13.4171V14.0343H6.77688V13.3943C6.77688 12.2819 6.92164 11.3295 7.21117 10.5371C7.51593 9.72952 7.99593 9.10476 8.65117 8.66286C9.32164 8.22095 10.2055 8 11.3026 8C12.7959 8 13.9083 8.42667 14.6397 9.28C15.3712 10.1181 15.7369 11.2838 15.7369 12.7771C15.7369 13.5695 15.6378 14.2629 15.4397 14.8571C15.2569 15.4514 15.0131 16.0076 14.7083 16.5257C14.4035 17.0438 14.0683 17.5771 13.7026 18.1257L9.45117 24.6171H15.3026V26.6743H6.57117Z" fill="black"/>
<path d="M22.6867 20.96V19.1086H27.7838V20.96H22.6867Z" fill="black"/>
<path d="M39.3553 26.88C38.3496 26.88 37.5115 26.6895 36.841 26.3086C36.1705 25.9276 35.6677 25.379 35.3324 24.6629C34.9972 23.9467 34.8296 23.101 34.8296 22.1257V21.5086H37.2524C37.2524 21.5695 37.2524 21.6381 37.2524 21.7143C37.2524 21.7752 37.2524 21.8438 37.2524 21.92C37.2677 22.4686 37.3286 22.9638 37.4353 23.4057C37.5572 23.8476 37.7629 24.1981 38.0524 24.4571C38.3572 24.7162 38.7915 24.8457 39.3553 24.8457C39.9496 24.8457 40.3991 24.7086 40.7038 24.4343C41.0086 24.1448 41.2143 23.741 41.321 23.2229C41.4277 22.7048 41.481 22.1105 41.481 21.44C41.481 20.4648 41.2981 19.6724 40.9324 19.0629C40.5819 18.4381 39.9572 18.0952 39.0581 18.0343C39.0124 18.019 38.9515 18.0114 38.8753 18.0114C38.8143 18.0114 38.761 18.0114 38.7153 18.0114V15.5657C38.761 15.5657 38.8143 15.5657 38.8753 15.5657C38.9362 15.5657 38.9896 15.5657 39.0353 15.5657C39.9038 15.5352 40.5286 15.3067 40.9096 14.88C41.2905 14.4533 41.481 13.7448 41.481 12.7543C41.481 11.9162 41.3362 11.2457 41.0467 10.7429C40.7724 10.24 40.2162 9.98857 39.3781 9.98857C38.54 9.98857 37.9838 10.2705 37.7096 10.8343C37.4353 11.3829 37.2829 12.0914 37.2524 12.96C37.2524 13.021 37.2524 13.0895 37.2524 13.1657C37.2524 13.2267 37.2524 13.2876 37.2524 13.3486H34.8296V12.7314C34.8296 11.741 34.9972 10.8952 35.3324 10.1943C35.6677 9.49333 36.1705 8.95238 36.841 8.57143C37.5267 8.19048 38.3724 8 39.3781 8C40.3991 8 41.2448 8.19048 41.9153 8.57143C42.5858 8.95238 43.0886 9.50095 43.4238 10.2171C43.7591 10.9181 43.9267 11.7638 43.9267 12.7543C43.9267 13.8667 43.6829 14.7581 43.1953 15.4286C42.7229 16.099 42.0829 16.5562 41.2753 16.8C41.8391 16.9676 42.3115 17.2571 42.6924 17.6686C43.0886 18.08 43.3934 18.6057 43.6067 19.2457C43.82 19.8705 43.9267 20.6019 43.9267 21.44C43.9267 22.5371 43.7743 23.4971 43.4696 24.32C43.1648 25.1276 42.6772 25.76 42.0067 26.2171C41.3362 26.659 40.4524 26.88 39.3553 26.88Z" fill="black"/>
</svg>
