<svg width="98" height="50" viewBox="0 0 98 50" fill="none" xmlns="http://www.w3.org/2000/svg">
<g clip-path="url(#clip0_264_65)">
<path d="M16.5088 13.2621C15.2864 12.4218 13.6912 12.0005 11.7233 12.0005H4.10462C3.50133 12.0005 3.16804 12.3023 3.10472 12.905L0.00971472 32.3323C-0.0224507 32.5231 0.0252879 32.6976 0.152494 32.8562C0.278972 33.0153 0.438053 33.0944 0.628571 33.0944H4.2474C4.88212 33.0944 5.23099 32.7934 5.29503 32.1896L6.152 26.9522C6.18329 26.6984 6.29492 26.492 6.48544 26.3331C6.67581 26.1744 6.91392 26.0705 7.19963 26.0231C7.48533 25.9759 7.75474 25.9522 8.00915 25.9522C8.26283 25.9522 8.56426 25.9682 8.914 25.9998C9.26287 26.0315 9.48526 26.0469 9.58059 26.0469C12.3104 26.0469 14.4531 25.2777 16.0089 23.7377C17.5639 22.1983 18.3422 20.0636 18.3422 17.3332C18.3422 15.4603 17.7307 14.1032 16.5088 13.2615V13.2621ZM12.5806 19.0956C12.4213 20.2068 12.0092 20.9366 11.3426 21.2859C10.6758 21.6356 9.72352 21.8094 8.48566 21.8094L6.91421 21.8571L7.72388 16.762C7.78705 16.4132 7.99328 16.2385 8.34274 16.2385H9.24773C10.5169 16.2385 11.438 16.4215 12.0094 16.7859C12.5806 17.1512 12.7711 17.9215 12.5806 19.0956Z" fill="#003087"/>
<path d="M96.9089 12H93.3856C93.0355 12 92.8294 12.1747 92.7666 12.5238L89.6713 32.3325L89.6235 32.4276C89.6235 32.5872 89.6871 32.7372 89.8143 32.8801C89.9407 33.0226 90.1 33.0942 90.2904 33.0942H93.4335C94.0357 33.0942 94.3692 32.7933 94.4335 32.1897L97.5285 12.7143V12.667C97.5282 12.2227 97.3212 12.0004 96.9089 12.0004V12Z" fill="#009CDE"/>
<path d="M54.3401 19.6673C54.3401 19.509 54.2764 19.3579 54.15 19.2153C54.0227 19.0725 53.8797 19.0007 53.7214 19.0007H50.055C49.7051 19.0007 49.4195 19.1602 49.1977 19.4768L44.1504 26.9054L42.0554 19.7628C41.8959 19.2551 41.547 19.0007 41.0078 19.0007H37.4361C37.277 19.0007 37.1341 19.0723 37.0079 19.2153C36.8806 19.3579 36.8174 19.5091 36.8174 19.6673C36.8174 19.7314 37.127 20.6674 37.7458 22.4768C38.3647 24.2865 39.0314 26.2388 39.7457 28.3341C40.4601 30.4291 40.8327 31.5406 40.8647 31.6668C38.2615 35.2224 36.9603 37.1273 36.9603 37.3809C36.9603 37.7939 37.1665 38 37.5793 38H41.2457C41.5949 38 41.8805 37.8417 42.103 37.5239L54.2454 20.0003C54.3084 19.9373 54.3401 19.8267 54.3401 19.6672V19.6673Z" fill="#003087"/>
<path d="M88.4821 19.0007H84.8631C84.4183 19.0007 84.1493 19.5246 84.054 20.5722C83.2277 19.303 81.7208 18.6673 79.53 18.6673C77.2444 18.6673 75.2998 19.5246 73.697 21.2388C72.0937 22.9532 71.2925 24.9692 71.2925 27.2863C71.2925 29.1596 71.8399 30.6515 72.935 31.7621C74.03 32.8739 75.4981 33.4287 77.34 33.4287C78.2603 33.4287 79.1967 33.2379 80.149 32.8573C81.1015 32.4764 81.8468 31.9688 82.3874 31.3336C82.3874 31.3655 82.3551 31.508 82.2922 31.7618C82.2281 32.0162 82.1968 32.2072 82.1968 32.3332C82.1968 32.8418 82.4027 33.095 82.816 33.095H86.1018C86.7041 33.095 87.0538 32.794 87.1487 32.1903L89.1012 19.7624C89.1325 19.5719 89.0851 19.3975 88.9584 19.2386C88.8309 19.0804 88.6726 19.0007 88.4821 19.0007ZM82.2682 28.3814C81.4586 29.175 80.4825 29.5718 79.3398 29.5718C78.4188 29.5718 77.6735 29.3183 77.1018 28.81C76.5301 28.3031 76.2444 27.6046 76.2444 26.7148C76.2444 25.5411 76.6413 24.5485 77.4351 23.739C78.2277 22.9294 79.2127 22.5247 80.3873 22.5247C81.2754 22.5247 82.0136 22.7867 82.6013 23.3102C83.1882 23.834 83.4826 24.5565 83.4826 25.477C83.4824 26.6197 83.0775 27.5882 82.2682 28.3814Z" fill="#009CDE"/>
<path d="M34.3891 19.0007H30.7703C30.3252 19.0007 30.0559 19.5246 29.9606 20.5722C29.1035 19.303 27.5955 18.6673 25.4369 18.6673C23.1513 18.6673 21.2066 19.5246 19.6038 21.2388C18.0004 22.9532 17.1992 24.9692 17.1992 27.2863C17.1992 29.1596 17.7469 30.6515 18.8421 31.7621C19.9374 32.8739 21.4052 33.4287 23.2466 33.4287C24.135 33.4287 25.0562 33.2379 26.0083 32.8573C26.9606 32.4764 27.7225 31.9688 28.294 31.3336C28.1666 31.7144 28.1034 32.0478 28.1034 32.3332C28.1034 32.8418 28.3097 33.095 28.7224 33.095H32.008C32.6107 33.095 32.9603 32.794 33.0556 32.1903L35.0078 19.7624C35.0391 19.5719 34.9915 19.3975 34.865 19.2386C34.7379 19.0804 34.5795 19.0007 34.3891 19.0007ZM28.175 28.405C27.3654 29.1838 26.3729 29.5718 25.1991 29.5718C24.2779 29.5718 23.5399 29.3183 22.9848 28.81C22.4289 28.3031 22.1514 27.6046 22.1514 26.7148C22.1514 25.5411 22.548 24.5485 23.3419 23.739C24.135 22.9294 25.1192 22.5247 26.2942 22.5247C27.1826 22.5247 27.9206 22.7867 28.5085 23.3103C29.0953 23.8341 29.3893 24.5566 29.3893 25.4772C29.3893 26.6516 28.9846 27.6281 28.175 28.405Z" fill="#003087"/>
<path d="M70.6022 13.2619C69.38 12.4216 67.7851 12.0004 65.8169 12.0004H58.2456C57.6105 12.0004 57.261 12.3021 57.1981 12.9048L54.103 32.3321C54.0708 32.5231 54.1184 32.6976 54.2458 32.8562C54.3717 33.0151 54.5313 33.0942 54.7218 33.0942H58.6262C59.0071 33.0942 59.261 32.8881 59.3882 32.4753L60.2454 26.952C60.2769 26.6982 60.388 26.4918 60.5787 26.3329C60.7692 26.1742 61.0071 26.0705 61.2931 26.0229C61.5786 25.9757 61.8479 25.952 62.1026 25.952C62.3563 25.952 62.6577 25.968 63.007 25.9996C63.3561 26.0313 63.5791 26.0467 63.6736 26.0467C66.404 26.0467 68.5463 25.2775 70.102 23.7375C71.6576 22.1981 72.4352 20.0634 72.4352 17.333C72.4355 15.4603 71.8241 14.1032 70.6022 13.2615V13.2619ZM65.7215 21.0952C65.0231 21.5712 63.9754 21.8092 62.5789 21.8092L61.0551 21.8569L61.8646 16.7619C61.9275 16.413 62.1337 16.2383 62.4835 16.2383H63.3403C64.0386 16.2383 64.594 16.2701 65.0074 16.3334C65.4194 16.3974 65.8169 16.5952 66.1978 16.9285C66.5788 17.262 66.7692 17.7462 66.7692 18.381C66.7692 19.7142 66.4196 20.6188 65.7215 21.0952Z" fill="#009CDE"/>
</g>
<defs>
<clipPath id="clip0_264_65">
<rect width="97.5288" height="50" fill="white"/>
</clipPath>
</defs>
</svg>
