<?xml version="1.0" encoding="UTF-8"?>
<!DOCTYPE svg PUBLIC "-//W3C//DTD SVG 1.1//EN" "http://www.w3.org/Graphics/SVG/1.1/DTD/svg11.dtd">
<!-- Creator: CorelDRAW 2017 -->
<svg xmlns="http://www.w3.org/2000/svg" xml:space="preserve" width="50mm" height="61.9428mm" version="1.1" style="shape-rendering:geometricPrecision; text-rendering:geometricPrecision; image-rendering:optimizeQuality; fill-rule:evenodd; clip-rule:evenodd"
viewBox="0 0 12.62 15.63"
 xmlns:xlink="http://www.w3.org/1999/xlink">
 <defs>
  <style type="text/css">
   <![CDATA[
    .fil0 {fill:#FEFEFE}
   ]]>
  </style>
 </defs>
 <g id="Layer_x0020_1">
  <metadata id="CorelCorpID_0Corel-Layer"/>
  <path class="fil0" d="M0.28 15.63l3.01 0c0.15,0 0.28,-0.13 0.28,-0.28 0,-0.15 -0.13,-0.28 -0.28,-0.28l-3.01 0c-0.15,0 -0.28,0.13 -0.28,0.28 0,0.15 0.13,0.28 0.28,0.28zm12.06 -0.56l-6.03 0c-0.15,0 -0.28,0.13 -0.28,0.28 0,0.15 0.13,0.28 0.28,0.28l6.03 0c0.15,0 0.28,-0.13 0.28,-0.28 0,-0.15 -0.13,-0.28 -0.28,-0.28zm-10.59 -6.88c0.05,-0.1 0.11,-0.21 0.17,-0.3 0.07,-0.11 0.15,-0.22 0.23,-0.33 0.19,-0.24 0.44,-0.47 0.65,-0.69l4.75 -4.75 0.16 0.4c0.22,0.54 0.54,1.03 0.95,1.44 0.41,0.41 0.9,0.74 1.44,0.95l0.4 0.16 -2.18 2.18c-0.11,0.11 -0.11,0.29 0,0.4 0.11,0.11 0.29,0.11 0.4,0l3.13 -3.13c0.5,-0.5 0.78,-1.17 0.78,-1.87 0,-0.71 -0.28,-1.38 -0.78,-1.87 -0.5,-0.5 -1.17,-0.78 -1.87,-0.78 -0.71,0 -1.38,0.28 -1.87,0.78l-5.69 5.69c-0.24,0.24 -0.49,0.48 -0.69,0.74 -0.09,0.12 -0.18,0.25 -0.26,0.38 -0.08,0.13 -0.15,0.27 -0.22,0.4 -0.06,0.13 -0.11,0.26 -0.16,0.39l-0.84 2.52c-0.01,0.02 -0.01,0.03 -0.02,0.07l-0.15 0.44c-0.05,0.16 -0.06,0.33 -0.02,0.5 0.04,0.17 0.12,0.32 0.24,0.44 0.12,0.12 0.27,0.21 0.44,0.24 0.16,0.04 0.34,0.03 0.5,-0.02l0.46 -0.15c0.02,-0 0.03,-0.01 0.07,-0.03l1.93 -0.64c0.31,-0.1 0.65,-0.21 0.95,-0.35 0.14,-0.07 0.27,-0.14 0.4,-0.22 0.13,-0.08 0.26,-0.17 0.38,-0.26 0.11,-0.09 0.22,-0.18 0.32,-0.28 0.14,-0.14 0.28,-0.27 0.42,-0.41 0.11,-0.11 0.11,-0.29 0,-0.4 -0.11,-0.11 -0.29,-0.11 -0.4,0l-0.41 0.41c-0.09,0.09 -0.18,0.17 -0.28,0.24 -0.1,0.08 -0.21,0.16 -0.33,0.23 -0.11,0.07 -0.23,0.13 -0.35,0.19 -0.28,0.13 -0.6,0.23 -0.89,0.33l-1.81 0.6 -0.89 -0.89 0.6 -1.81c0.06,-0.18 0.12,-0.36 0.19,-0.54 0.04,-0.12 0.09,-0.23 0.14,-0.34l0.02 -0.04 0 -0zm6.74 -7.02c0.39,-0.39 0.92,-0.61 1.48,-0.61 0.56,0 1.09,0.22 1.48,0.61 0.39,0.39 0.61,0.92 0.61,1.48 0,0.56 -0.22,1.09 -0.61,1.48l-0.47 0.47 -0.15 -0.03c-0.67,-0.14 -1.3,-0.51 -1.78,-0.99 -0.48,-0.48 -0.85,-1.11 -0.99,-1.78l-0.03 -0.15 0.47 -0.47z"/>
 </g>
</svg>
