<svg width="50" height="50" viewBox="0 0 50 50" fill="none" xmlns="http://www.w3.org/2000/svg">
<path d="M5.28738 32.46C4.61461 32.46 4.05397 32.3141 3.60546 32.0223C3.15695 31.7306 2.82057 31.3104 2.59632 30.7619C2.37206 30.2134 2.25993 29.5657 2.25993 28.8187V28.3461H3.88069C3.88069 28.4278 3.88069 28.5153 3.88069 28.6087C3.88069 28.6904 3.88578 28.7662 3.89598 28.8362C3.91636 29.4431 4.0183 29.9391 4.20178 30.3243C4.38526 30.7094 4.74713 30.902 5.28738 30.902C5.68492 30.902 5.98563 30.7969 6.1895 30.5869C6.39336 30.3651 6.53098 30.0617 6.60233 29.6765C6.67368 29.2797 6.70936 28.8246 6.70936 28.3111C6.70936 27.5758 6.56665 26.9631 6.28124 26.4729C5.99582 25.9828 5.45557 25.7085 4.66048 25.6501C4.61971 25.6385 4.56874 25.6326 4.50758 25.6326C4.45661 25.6326 4.40055 25.6326 4.33939 25.6326C4.28842 25.6326 4.23746 25.6326 4.18649 25.6326V24.1271C4.22726 24.1271 4.27313 24.1271 4.3241 24.1271C4.38526 24.1271 4.44132 24.1271 4.49229 24.1271C4.55345 24.1154 4.59932 24.1096 4.6299 24.1096C5.4148 24.0513 5.95505 23.8178 6.25066 23.4094C6.55646 22.9892 6.70936 22.4057 6.70936 21.6588C6.70936 21.0169 6.59723 20.5034 6.37298 20.1182C6.15892 19.7214 5.77157 19.523 5.21093 19.523C4.67068 19.523 4.28333 19.7214 4.04888 20.1182C3.81443 20.5034 3.67682 21.011 3.63604 21.6413C3.63604 21.7113 3.63604 21.7871 3.63604 21.8688C3.63604 21.9389 3.63604 22.0147 3.63604 22.0964H2V21.6238C2 20.8652 2.12232 20.2174 2.36696 19.6806C2.61161 19.1437 2.96838 18.7294 3.43727 18.4377C3.90617 18.1459 4.477 18 5.14977 18C5.83273 18 6.40865 18.1517 6.87755 18.4552C7.35664 18.7469 7.71851 19.1671 7.96315 19.7156C8.21799 20.2524 8.3454 20.9002 8.3454 21.6588C8.3454 22.5107 8.18231 23.2051 7.85612 23.742C7.54012 24.2788 7.112 24.6348 6.57175 24.8099C6.93871 24.9499 7.25471 25.1716 7.51974 25.4751C7.78477 25.7785 7.98863 26.1695 8.13134 26.648C8.27405 27.1148 8.3454 27.6692 8.3454 28.3111C8.3454 29.1514 8.24347 29.8866 8.0396 30.5168C7.83573 31.1354 7.50954 31.6139 7.06103 31.9523C6.61252 32.2908 6.0213 32.46 5.28738 32.46Z" fill="black"/>
<path d="M9.23976 32.3024L11.8697 18.1225H13.5363L16.1815 32.3024H14.5454L13.9797 28.7312H11.4568L10.8605 32.3024H9.23976ZM11.6862 27.3132H13.7503L12.7106 20.9235L11.6862 27.3132Z" fill="black"/>
<path d="M17.4381 32.3024V18.1225H24.2575V32.3024H22.5297V19.5405H19.1659V32.3024H17.4381Z" fill="black"/>
<path d="M26.1882 32.3024V18.1225H29.2615C30.0056 18.1225 30.5968 18.2801 31.0351 18.5952C31.4836 18.8986 31.8098 19.3421 32.0137 19.9257C32.2176 20.5092 32.3195 21.2153 32.3195 22.0439C32.3195 22.7908 32.2023 23.4385 31.9678 23.9871C31.7436 24.5356 31.4072 24.9616 30.9587 25.265C30.5102 25.5568 29.9495 25.7027 29.2768 25.7027H27.9159V32.3024H26.1882ZM27.9159 24.2847H28.711C29.2105 24.2847 29.6029 24.2205 29.8884 24.0921C30.1738 23.9637 30.3776 23.742 30.5 23.4269C30.6223 23.1001 30.6834 22.6449 30.6834 22.0614C30.6834 21.3845 30.6376 20.8652 30.5458 20.5034C30.4643 20.1416 30.2859 19.8907 30.0107 19.7506C29.7355 19.6106 29.3073 19.5405 28.7263 19.5405H27.9159V24.2847Z" fill="black"/>
<path d="M36.6996 32.46C35.8638 32.46 35.1961 32.2733 34.6966 31.8998C34.1972 31.5263 33.8404 30.9953 33.6263 30.3068C33.4123 29.6065 33.3052 28.7896 33.3052 27.8559V22.4815C33.3052 21.5479 33.4123 20.7485 33.6263 20.0832C33.8506 19.4063 34.2073 18.8928 34.6966 18.5427C35.1961 18.1809 35.8638 18 36.6996 18C37.5355 18 38.1981 18.1809 38.6874 18.5427C39.1766 18.9045 39.5283 19.418 39.7424 20.0832C39.9666 20.7485 40.0788 21.5479 40.0788 22.4815V27.8734C40.0788 28.7954 39.9666 29.6007 39.7424 30.2892C39.5283 30.9778 39.1766 31.5147 38.6874 31.8998C38.1981 32.2733 37.5355 32.46 36.6996 32.46ZM36.6996 30.902C37.1583 30.902 37.5049 30.7969 37.7394 30.5869C37.9738 30.3651 38.1318 30.0617 38.2134 29.6765C38.2949 29.2797 38.3357 28.8187 38.3357 28.2936V22.0789C38.3357 21.5537 38.2949 21.1044 38.2134 20.7309C38.1318 20.3458 37.9738 20.054 37.7394 19.8556C37.5049 19.6456 37.1583 19.5405 36.6996 19.5405C36.2409 19.5405 35.8893 19.6456 35.6446 19.8556C35.4102 20.054 35.2522 20.3458 35.1706 20.7309C35.0891 21.1044 35.0483 21.5537 35.0483 22.0789V28.2936C35.0483 28.8187 35.0891 29.2797 35.1706 29.6765C35.2522 30.0617 35.4102 30.3651 35.6446 30.5869C35.8893 30.7969 36.2409 30.902 36.6996 30.902Z" fill="black"/>
<path d="M44.8808 32.46C44.0042 32.46 43.3212 32.2499 42.8319 31.8298C42.3528 31.4096 42.0165 30.8436 41.8228 30.1317C41.6393 29.4198 41.5476 28.6262 41.5476 27.7509V22.7441C41.5476 21.7871 41.6393 20.9527 41.8228 20.2408C42.0165 19.5289 42.3528 18.9803 42.8319 18.5952C43.3212 18.1984 44.0042 18 44.8808 18C45.6555 18 46.2671 18.1634 46.7156 18.4902C47.1743 18.8169 47.5005 19.2838 47.6942 19.8907C47.8981 20.4975 48 21.2269 48 22.0789V23.1993H46.364V22.2015C46.364 21.6763 46.3385 21.2153 46.2875 20.8185C46.2467 20.41 46.1244 20.0949 45.9205 19.8731C45.7167 19.6514 45.3752 19.5405 44.8961 19.5405C44.4068 19.5405 44.05 19.6631 43.8258 19.9082C43.6015 20.1416 43.4537 20.48 43.3824 20.9235C43.3212 21.3553 43.2906 21.863 43.2906 22.4465V28.066C43.2906 28.7779 43.3416 29.3439 43.4435 29.7641C43.5455 30.1725 43.7137 30.4643 43.9481 30.6394C44.1826 30.8144 44.4986 30.902 44.8961 30.902C45.365 30.902 45.7014 30.7853 45.9052 30.5518C46.1091 30.3068 46.2365 29.9741 46.2875 29.554C46.3385 29.1338 46.364 28.6437 46.364 28.0835V27.0331H48V28.0835C48 28.9471 47.9083 29.7115 47.7248 30.3768C47.5413 31.0303 47.2253 31.5438 46.7768 31.9173C46.3283 32.2791 45.6963 32.46 44.8808 32.46Z" fill="black"/>
</svg>
