<svg width="50" height="50" viewBox="0 0 50 50" fill="none" xmlns="http://www.w3.org/2000/svg">
<path d="M6 30.64V20.0912H8.61767C9.25147 20.0912 9.75504 20.2084 10.1284 20.4428C10.5104 20.6685 10.7882 20.9984 10.9619 21.4326C11.1355 21.8667 11.2223 22.3919 11.2223 23.0084C11.2223 23.564 11.1225 24.0459 10.9228 24.454C10.7318 24.862 10.4453 25.1789 10.0633 25.4047C9.68124 25.6217 9.20372 25.7302 8.6307 25.7302H7.47163V30.64H6ZM7.47163 24.6753H8.14884C8.57426 24.6753 8.90853 24.6276 9.15163 24.5321C9.39473 24.4366 9.56837 24.2716 9.67256 24.0372C9.77674 23.7941 9.82884 23.4555 9.82884 23.0214C9.82884 22.5178 9.78977 22.1315 9.71163 21.8623C9.64217 21.5932 9.49023 21.4065 9.25581 21.3023C9.0214 21.1981 8.65674 21.146 8.16186 21.146H7.47163V24.6753Z" fill="black"/>
<path d="M11.0992 30.64L13.3392 20.0912H14.7587L17.0118 30.64H15.6183L15.1364 27.9833H12.9876L12.4797 30.64H11.0992ZM13.1829 26.9284H14.9411L14.0555 22.1749L13.1829 26.9284Z" fill="black"/>
<path d="M20.3872 30.7572C19.8142 30.7572 19.3367 30.6487 18.9547 30.4316C18.5727 30.2146 18.2862 29.902 18.0951 29.494C17.9041 29.0859 17.8086 28.604 17.8086 28.0484V27.6967H19.1891C19.1891 27.7575 19.1891 27.8226 19.1891 27.8921C19.1891 27.9529 19.1934 28.0093 19.2021 28.0614C19.2195 28.5129 19.3063 28.8819 19.4626 29.1684C19.6189 29.4549 19.9271 29.5981 20.3872 29.5981C20.7258 29.5981 20.982 29.52 21.1556 29.3637C21.3293 29.1988 21.4465 28.973 21.5072 28.6865C21.568 28.3913 21.5984 28.0527 21.5984 27.6707C21.5984 27.1237 21.4769 26.6679 21.2337 26.3033C20.9906 25.9386 20.5305 25.7346 19.8533 25.6912C19.8186 25.6825 19.7751 25.6781 19.7231 25.6781C19.6796 25.6781 19.6319 25.6781 19.5798 25.6781C19.5364 25.6781 19.493 25.6781 19.4496 25.6781V24.5581C19.4843 24.5581 19.5234 24.5581 19.5668 24.5581C19.6189 24.5581 19.6666 24.5581 19.71 24.5581C19.7621 24.5495 19.8012 24.5451 19.8272 24.5451C20.4958 24.5017 20.9559 24.3281 21.2077 24.0242C21.4682 23.7116 21.5984 23.2775 21.5984 22.7219C21.5984 22.2443 21.5029 21.8623 21.3119 21.5758C21.1296 21.2806 20.7996 21.133 20.3221 21.133C19.862 21.133 19.532 21.2806 19.3324 21.5758C19.1327 21.8623 19.0155 22.24 18.9807 22.7088C18.9807 22.7609 18.9807 22.8174 18.9807 22.8781C18.9807 22.9302 18.9807 22.9867 18.9807 23.0474H17.5872V22.6958C17.5872 22.1315 17.6914 21.6496 17.8998 21.2502C18.1082 20.8509 18.412 20.5426 18.8114 20.3256C19.2108 20.1085 19.697 20 20.27 20C20.8517 20 21.3423 20.1129 21.7417 20.3386C22.1497 20.5557 22.4579 20.8682 22.6663 21.2763C22.8834 21.6757 22.9919 22.1575 22.9919 22.7219C22.9919 23.3557 22.853 23.8722 22.5751 24.2716C22.306 24.671 21.9413 24.9358 21.4812 25.066C21.7937 25.1702 22.0629 25.3352 22.2886 25.5609C22.5144 25.7867 22.688 26.0775 22.8096 26.4335C22.9311 26.7808 22.9919 27.1932 22.9919 27.6707C22.9919 28.2958 22.9051 28.8428 22.7314 29.3116C22.5578 29.7718 22.28 30.1278 21.8979 30.3795C21.5159 30.6313 21.0124 30.7572 20.3872 30.7572Z" fill="black"/>
<path d="M27.0352 30.7572C26.3233 30.7572 25.7546 30.6183 25.3292 30.3405C24.9037 30.0626 24.5999 29.6676 24.4175 29.1553C24.2352 28.6344 24.144 28.0267 24.144 27.3321V23.334C24.144 22.6394 24.2352 22.0447 24.4175 21.5498C24.6085 21.0462 24.9124 20.6642 25.3292 20.4037C25.7546 20.1346 26.3233 20 27.0352 20C27.7471 20 28.3115 20.1346 28.7282 20.4037C29.145 20.6729 29.4445 21.0549 29.6268 21.5498C29.8178 22.0447 29.9133 22.6394 29.9133 23.334V27.3451C29.9133 28.031 29.8178 28.6301 29.6268 29.1423C29.4445 29.6546 29.145 30.054 28.7282 30.3405C28.3115 30.6183 27.7471 30.7572 27.0352 30.7572ZM27.0352 29.5981C27.4259 29.5981 27.7211 29.52 27.9208 29.3637C28.1205 29.1988 28.255 28.973 28.3245 28.6865C28.394 28.3913 28.4287 28.0484 28.4287 27.6577V23.0344C28.4287 22.6437 28.394 22.3095 28.3245 22.0316C28.255 21.7451 28.1205 21.5281 27.9208 21.3805C27.7211 21.2242 27.4259 21.146 27.0352 21.146C26.6445 21.146 26.345 21.2242 26.1366 21.3805C25.9369 21.5281 25.8023 21.7451 25.7329 22.0316C25.6634 22.3095 25.6287 22.6437 25.6287 23.0344V27.6577C25.6287 28.0484 25.6634 28.3913 25.7329 28.6865C25.8023 28.973 25.9369 29.1988 26.1366 29.3637C26.345 29.52 26.6445 29.5981 27.0352 29.5981Z" fill="black"/>
<path d="M31.3597 30.64V20.0912H33.7821C34.2596 20.0912 34.672 20.1433 35.0193 20.2474C35.3752 20.3516 35.6704 20.5122 35.9049 20.7293C36.1393 20.9464 36.3129 21.2242 36.4258 21.5628C36.5387 21.8927 36.5951 22.2834 36.5951 22.7349C36.5951 23.169 36.5387 23.5467 36.4258 23.8679C36.3216 24.1805 36.1566 24.4279 35.9309 24.6102C35.7138 24.7926 35.4317 24.9098 35.0844 24.9619C35.5098 25.0574 35.8528 25.2223 36.1132 25.4567C36.3737 25.6825 36.5647 25.9777 36.6862 26.3423C36.8165 26.6983 36.8816 27.1281 36.8816 27.6316C36.8816 28.0831 36.8295 28.4955 36.7253 28.8688C36.6211 29.2422 36.4562 29.5591 36.2304 29.8195C36.0134 30.08 35.7312 30.284 35.3839 30.4316C35.0453 30.5705 34.6416 30.64 34.1728 30.64H31.3597ZM32.8314 29.5851H33.8211C34.481 29.5851 34.9194 29.4332 35.1365 29.1293C35.3622 28.8167 35.4751 28.3175 35.4751 27.6316C35.4751 27.1888 35.4143 26.8198 35.2928 26.5247C35.1799 26.2208 34.9932 25.995 34.7328 25.8474C34.481 25.6912 34.138 25.613 33.7039 25.613H32.8314V29.5851ZM32.8314 24.493H33.7039C34.1207 24.493 34.4462 24.4366 34.6807 24.3237C34.9151 24.2022 35.08 24.0112 35.1756 23.7507C35.2711 23.4902 35.3188 23.1516 35.3188 22.7349C35.3188 22.2487 35.245 21.8971 35.0974 21.68C34.9498 21.4629 34.7197 21.3284 34.4072 21.2763C34.0946 21.2155 33.6866 21.1851 33.183 21.1851H32.8314V24.493Z" fill="black"/>
<path d="M40.8851 30.7572C40.1732 30.7572 39.6045 30.6183 39.1791 30.3405C38.7537 30.0626 38.4498 29.6676 38.2675 29.1553C38.0851 28.6344 37.994 28.0267 37.994 27.3321V23.334C37.994 22.6394 38.0851 22.0447 38.2675 21.5498C38.4585 21.0462 38.7623 20.6642 39.1791 20.4037C39.6045 20.1346 40.1732 20 40.8851 20C41.5971 20 42.1614 20.1346 42.5782 20.4037C42.9949 20.6729 43.2944 21.0549 43.4768 21.5498C43.6678 22.0447 43.7633 22.6394 43.7633 23.334V27.3451C43.7633 28.031 43.6678 28.6301 43.4768 29.1423C43.2944 29.6546 42.9949 30.054 42.5782 30.3405C42.1614 30.6183 41.5971 30.7572 40.8851 30.7572ZM40.8851 29.5981C41.2758 29.5981 41.571 29.52 41.7707 29.3637C41.9704 29.1988 42.105 28.973 42.1744 28.6865C42.2439 28.3913 42.2786 28.0484 42.2786 27.6577V23.0344C42.2786 22.6437 42.2439 22.3095 42.1744 22.0316C42.105 21.7451 41.9704 21.5281 41.7707 21.3805C41.571 21.2242 41.2758 21.146 40.8851 21.146C40.4944 21.146 40.1949 21.2242 39.9865 21.3805C39.7868 21.5281 39.6523 21.7451 39.5828 22.0316C39.5133 22.3095 39.4786 22.6437 39.4786 23.0344V27.6577C39.4786 28.0484 39.5133 28.3913 39.5828 28.6865C39.6523 28.973 39.7868 29.1988 39.9865 29.3637C40.1949 29.52 40.4944 29.5981 40.8851 29.5981Z" fill="black"/>
</svg>
