<svg width="50" height="50" viewBox="0 0 50 50" fill="none" xmlns="http://www.w3.org/2000/svg">
<path d="M7.60768 38.5053V29.9857H6V29H10.4945V29.9857H8.93372V38.5053H7.60768Z" fill="black"/>
<path d="M11.3191 38.5053V29H15.0039V29.9857H12.6452V33.1307H14.5579V34.0695H12.6452V37.5547H15.0273V38.5053H11.3191Z" fill="black"/>
<path d="M16.0979 38.5053V29H18.4566C19.0277 29 19.4814 29.1056 19.8178 29.3168C20.1621 29.5202 20.4124 29.8175 20.5689 30.2087C20.7253 30.5999 20.8036 31.0732 20.8036 31.6286C20.8036 32.1293 20.7136 32.5635 20.5337 32.9312C20.3616 33.2989 20.1034 33.5844 19.7592 33.7878C19.4149 33.9834 18.9847 34.0812 18.4683 34.0812H17.4239V38.5053H16.0979ZM17.4239 33.1307H18.0341C18.4175 33.1307 18.7187 33.0877 18.9377 33.0016C19.1568 32.9155 19.3132 32.7669 19.4071 32.5557C19.501 32.3366 19.5479 32.0315 19.5479 31.6404C19.5479 31.1866 19.5127 30.8385 19.4423 30.5959C19.3797 30.3534 19.2428 30.1852 19.0316 30.0913C18.8204 29.9975 18.4918 29.9505 18.0459 29.9505H17.4239V33.1307Z" fill="black"/>
<path d="M20.6926 38.5053L22.711 29H23.9901L26.0203 38.5053H24.7646L24.3305 36.1113H22.3942L21.9365 38.5053H20.6926ZM22.5702 35.1608H24.1544L23.3565 30.8776L22.5702 35.1608Z" fill="black"/>
<path d="M26.9847 38.5053V29H32.2185V38.5053H30.8925V29.9505H28.3108V38.5053H26.9847Z" fill="black"/>
<path d="M33.7002 38.5053V29H34.8737V35.5833L37.6549 29H38.6054V38.5053H37.4436V31.8164L34.6859 38.5053H33.7002Z" fill="black"/>
<path d="M40.0948 38.5053V29H41.2683V35.5833L44.0495 29H45V38.5053H43.8382V31.8164L41.0805 38.5053H40.0948Z" fill="black"/>
<path d="M8.78564 23.8692V12.1017H14.6949V23.8692H13.1977V13.2785H10.2828V23.8692H8.78564Z" fill="black"/>
<path d="M19.1104 24C18.3861 24 17.8076 23.845 17.3748 23.5351C16.9419 23.2252 16.6328 22.7845 16.4473 22.2131C16.2618 21.632 16.1691 20.954 16.1691 20.1792V15.7191C16.1691 14.9443 16.2618 14.2809 16.4473 13.7288C16.6416 13.1671 16.9508 12.7409 17.3748 12.4504C17.8076 12.1501 18.3861 12 19.1104 12C19.8347 12 20.4089 12.1501 20.8328 12.4504C21.2568 12.7506 21.5616 13.1768 21.747 13.7288C21.9414 14.2809 22.0385 14.9443 22.0385 15.7191V20.1937C22.0385 20.9588 21.9414 21.6271 21.747 22.1985C21.5616 22.77 21.2568 23.2155 20.8328 23.5351C20.4089 23.845 19.8347 24 19.1104 24ZM19.1104 22.707C19.5079 22.707 19.8082 22.6199 20.0114 22.4455C20.2145 22.2615 20.3514 22.0097 20.4221 21.6901C20.4928 21.3608 20.5281 20.9782 20.5281 20.5424V15.385C20.5281 14.9492 20.4928 14.5763 20.4221 14.2663C20.3514 13.9467 20.2145 13.7046 20.0114 13.54C19.8082 13.3656 19.5079 13.2785 19.1104 13.2785C18.7129 13.2785 18.4082 13.3656 18.1962 13.54C17.9931 13.7046 17.8561 13.9467 17.7855 14.2663C17.7148 14.5763 17.6795 14.9492 17.6795 15.385V20.5424C17.6795 20.9782 17.7148 21.3608 17.7855 21.6901C17.8561 22.0097 17.9931 22.2615 18.1962 22.4455C18.4082 22.6199 18.7129 22.707 19.1104 22.707Z" fill="black"/>
<path d="M26.1997 24C25.44 24 24.8482 23.8257 24.4242 23.477C24.0091 23.1283 23.7176 22.6586 23.5498 22.0678C23.3908 21.477 23.3113 20.8184 23.3113 20.092V15.937C23.3113 15.1429 23.3908 14.4504 23.5498 13.8596C23.7176 13.2688 24.0091 12.8136 24.4242 12.4939C24.8482 12.1646 25.44 12 26.1997 12C26.871 12 27.4009 12.1356 27.7896 12.4068C28.1871 12.678 28.4697 13.0654 28.6375 13.569C28.8142 14.0726 28.9025 14.678 28.9025 15.385V16.3148H27.4849V15.4867C27.4849 15.0508 27.4628 14.6683 27.4186 14.339C27.3833 14 27.2773 13.7385 27.1006 13.5545C26.924 13.3705 26.6281 13.2785 26.2129 13.2785C25.7889 13.2785 25.4798 13.3801 25.2855 13.5835C25.0911 13.7772 24.9631 14.0581 24.9012 14.4261C24.8482 14.7845 24.8217 15.2058 24.8217 15.6901V20.3535C24.8217 20.9443 24.8659 21.414 24.9542 21.7627C25.0426 22.1017 25.1883 22.3438 25.3915 22.4891C25.5946 22.6344 25.8684 22.707 26.2129 22.707C26.6192 22.707 26.9107 22.6102 27.0874 22.4165C27.264 22.2131 27.3744 21.937 27.4186 21.5884C27.4628 21.2397 27.4849 20.8329 27.4849 20.368V19.4964H28.9025V20.368C28.9025 21.0847 28.823 21.7191 28.664 22.2712C28.5051 22.8136 28.2312 23.2397 27.8426 23.5496C27.4539 23.8499 26.9063 24 26.1997 24Z" fill="black"/>
<path d="M29.5206 23.8692V22.6489C29.7149 22.6586 29.8916 22.6441 30.0506 22.6053C30.2184 22.5666 30.3641 22.4746 30.4878 22.3293C30.6203 22.184 30.7351 21.9564 30.8323 21.6465C30.9294 21.3366 31.0134 20.9153 31.084 20.3826C31.1547 19.8499 31.2165 19.1768 31.2695 18.3632L31.6272 12.1017H36.344V23.8692H34.8468V13.322H32.9124L32.6607 18.3632C32.6165 19.1186 32.5591 19.8015 32.4885 20.4116C32.4178 21.0121 32.3118 21.54 32.1705 21.9952C32.038 22.4407 31.8569 22.8136 31.6272 23.1138C31.4064 23.4044 31.1238 23.6126 30.7793 23.7385C30.4348 23.8644 30.0152 23.908 29.5206 23.8692Z" fill="black"/>
<path d="M38.0274 23.8692V12.1017H42.1877V13.322H39.5246V17.2155H41.6842V18.3777H39.5246V22.6925H42.2142V23.8692H38.0274Z" fill="black"/>
</svg>
