<svg width="50" height="50" viewBox="0 0 50 50" fill="none" xmlns="http://www.w3.org/2000/svg">
<path d="M9.815 32.455C8.81167 32.455 8.03 32.245 7.47 31.825C6.92167 31.405 6.53667 30.8392 6.315 30.1275C6.105 29.4158 6 28.6225 6 27.7475V22.7425C6 21.7858 6.105 20.9517 6.315 20.24C6.53667 19.5283 6.92167 18.98 7.47 18.595C8.03 18.1983 8.81167 18 9.815 18C10.7017 18 11.4017 18.1633 11.915 18.49C12.44 18.8167 12.8133 19.2833 13.035 19.89C13.2683 20.4967 13.385 21.2258 13.385 22.0775V23.1975H11.5125V22.2C11.5125 21.675 11.4833 21.2142 11.425 20.8175C11.3783 20.4092 11.2383 20.0942 11.005 19.8725C10.7717 19.6508 10.3808 19.54 9.8325 19.54C9.2725 19.54 8.86417 19.6625 8.6075 19.9075C8.35083 20.1408 8.18167 20.4792 8.1 20.9225C8.03 21.3542 7.995 21.8617 7.995 22.445V28.0625C7.995 28.7742 8.05333 29.34 8.17 29.76C8.28667 30.1683 8.47917 30.46 8.7475 30.635C9.01583 30.81 9.3775 30.8975 9.8325 30.8975C10.3692 30.8975 10.7542 30.7808 10.9875 30.5475C11.2208 30.3025 11.3667 29.97 11.425 29.55C11.4833 29.13 11.5125 28.64 11.5125 28.08V27.03H13.385V28.08C13.385 28.9433 13.28 29.7075 13.07 30.3725C12.86 31.0258 12.4983 31.5392 11.985 31.9125C11.4717 32.2742 10.7483 32.455 9.815 32.455Z" fill="black"/>
<path d="M16.8263 32.2975V19.5925H14.4288V18.1225H21.1313V19.5925H18.8038V32.2975H16.8263Z" fill="black"/>
<path d="M21.0101 32.2975L24.0201 18.1225H25.9276L28.9551 32.2975H27.0826L26.4351 28.7275H23.5476L22.8651 32.2975H21.0101ZM23.8101 27.31H26.1726L24.9826 20.9225L23.8101 27.31Z" fill="black"/>
<path d="M30.3934 32.2975V18.1225H33.9109C34.7625 18.1225 35.4392 18.28 35.9409 18.595C36.4542 18.8983 36.8275 19.3417 37.0609 19.925C37.2942 20.5083 37.4109 21.2142 37.4109 22.0425C37.4109 22.7892 37.2767 23.4367 37.0084 23.985C36.7517 24.5333 36.3667 24.9592 35.8534 25.2625C35.34 25.5542 34.6984 25.7 33.9284 25.7H32.3709V32.2975H30.3934ZM32.3709 24.2825H33.2809C33.8525 24.2825 34.3017 24.2183 34.6284 24.09C34.955 23.9617 35.1884 23.74 35.3284 23.425C35.4684 23.0983 35.5384 22.6433 35.5384 22.06C35.5384 21.3833 35.4859 20.8642 35.3809 20.5025C35.2875 20.1408 35.0834 19.89 34.7684 19.75C34.4534 19.61 33.9634 19.54 33.2984 19.54H32.3709V24.2825Z" fill="black"/>
<path d="M40.3591 32.2975V19.5925H37.9616V18.1225H44.6641V19.5925H42.3366V32.2975H40.3591Z" fill="black"/>
</svg>
