<svg width="50" height="50" viewBox="0 0 50 50" fill="none" xmlns="http://www.w3.org/2000/svg">
<path d="M10 25.6575L10.2625 11.4825H12.205L14.7075 22.98L17.2275 11.4825H19.1525L19.415 25.6575H17.8225L17.665 15.3675L15.2675 25.6575H14.1475L11.7675 15.3675L11.61 25.6575H10Z" fill="black"/>
<path d="M25.2102 25.815C24.2536 25.815 23.4894 25.6283 22.9177 25.255C22.3461 24.8817 21.9377 24.3508 21.6927 23.6625C21.4477 22.9625 21.3252 22.1458 21.3252 21.2125V15.84C21.3252 14.9067 21.4477 14.1075 21.6927 13.4425C21.9494 12.7658 22.3577 12.2525 22.9177 11.9025C23.4894 11.5408 24.2536 11.36 25.2102 11.36C26.1669 11.36 26.9252 11.5408 27.4852 11.9025C28.0452 12.2642 28.4477 12.7775 28.6927 13.4425C28.9494 14.1075 29.0777 14.9067 29.0777 15.84V21.23C29.0777 22.1517 28.9494 22.9567 28.6927 23.645C28.4477 24.3333 28.0452 24.87 27.4852 25.255C26.9252 25.6283 26.1669 25.815 25.2102 25.815ZM25.2102 24.2575C25.7352 24.2575 26.1319 24.1525 26.4002 23.9425C26.6686 23.7208 26.8494 23.4175 26.9427 23.0325C27.0361 22.6358 27.0827 22.175 27.0827 21.65V15.4375C27.0827 14.9125 27.0361 14.4633 26.9427 14.09C26.8494 13.705 26.6686 13.4133 26.4002 13.215C26.1319 13.005 25.7352 12.9 25.2102 12.9C24.6852 12.9 24.2827 13.005 24.0027 13.215C23.7344 13.4133 23.5536 13.705 23.4602 14.09C23.3669 14.4633 23.3202 14.9125 23.3202 15.4375V21.65C23.3202 22.175 23.3669 22.6358 23.4602 23.0325C23.5536 23.4175 23.7344 23.7208 24.0027 23.9425C24.2827 24.1525 24.6852 24.2575 25.2102 24.2575Z" fill="black"/>
<path d="M31.0213 25.6575V11.4825H32.7713V21.3L36.9188 11.4825H38.3363V25.6575H36.6038V15.6825L32.4913 25.6575H31.0213ZM34.8538 10.38C34.0138 10.38 33.4188 10.1525 33.0688 9.6975C32.7305 9.2425 32.5613 8.67667 32.5613 8H33.6463C33.658 8.42 33.7513 8.74667 33.9263 8.98C34.113 9.20167 34.4222 9.3125 34.8538 9.3125C35.2972 9.3125 35.6063 9.19583 35.7813 8.9625C35.968 8.72917 36.0613 8.40833 36.0613 8H37.1638C37.1638 8.67667 36.9888 9.2425 36.6388 9.6975C36.3005 10.1525 35.7055 10.38 34.8538 10.38Z" fill="black"/>
<path d="M6 40.0945V30.5269H11.2681V40.0945H9.93335V31.4837H7.33474V40.0945H6Z" fill="black"/>
<path d="M15.2046 40.2008C14.5589 40.2008 14.0431 40.0748 13.6572 39.8228C13.2714 39.5708 12.9958 39.2126 12.8304 38.748C12.665 38.2755 12.5823 37.7243 12.5823 37.0943V33.4681C12.5823 32.8381 12.665 32.2987 12.8304 31.8498C13.0036 31.3931 13.2792 31.0466 13.6572 30.8104C14.0431 30.5663 14.5589 30.4442 15.2046 30.4442C15.8503 30.4442 16.3621 30.5663 16.7401 30.8104C17.1181 31.0545 17.3898 31.401 17.5551 31.8498C17.7284 32.2987 17.815 32.8381 17.815 33.4681V37.1061C17.815 37.7282 17.7284 38.2715 17.5551 38.7361C17.3898 39.2007 17.1181 39.563 16.7401 39.8228C16.3621 40.0748 15.8503 40.2008 15.2046 40.2008ZM15.2046 39.1496C15.5589 39.1496 15.8267 39.0787 16.0078 38.9369C16.1889 38.7873 16.311 38.5826 16.374 38.3227C16.4369 38.055 16.4684 37.7439 16.4684 37.3896V33.1964C16.4684 32.842 16.4369 32.5389 16.374 32.2869C16.311 32.027 16.1889 31.8301 16.0078 31.6963C15.8267 31.5545 15.5589 31.4837 15.2046 31.4837C14.8502 31.4837 14.5785 31.5545 14.3896 31.6963C14.2084 31.8301 14.0864 32.027 14.0234 32.2869C13.9604 32.5389 13.9289 32.842 13.9289 33.1964V37.3896C13.9289 37.7439 13.9604 38.055 14.0234 38.3227C14.0864 38.5826 14.2084 38.7873 14.3896 38.9369C14.5785 39.0787 14.8502 39.1496 15.2046 39.1496Z" fill="black"/>
<path d="M18.5126 41.8308V39.1377H18.9497C19.0835 39.0275 19.2135 38.8936 19.3395 38.7361C19.4733 38.5786 19.5954 38.3739 19.7056 38.1219C19.8238 37.8621 19.9301 37.5313 20.0246 37.1297C20.1191 36.7203 20.2017 36.2084 20.2726 35.5942C20.3514 34.98 20.4104 34.2358 20.4498 33.3617L20.6033 30.5269H24.6076V39.1377H25.5289V41.8308H24.5013L24.3949 40.0945H19.6466L19.5403 41.8308H18.5126ZM20.1899 39.1377H23.2846V31.5191H21.7373L21.6428 33.6807C21.6113 34.5311 21.5601 35.2477 21.4892 35.8304C21.4262 36.4053 21.3475 36.8817 21.253 37.2597C21.1664 37.6298 21.064 37.9329 20.9459 38.1692C20.8356 38.3975 20.7136 38.5826 20.5797 38.7243C20.4537 38.8661 20.3238 39.0039 20.1899 39.1377Z" fill="black"/>
<path d="M25.9417 40.0945L27.9379 35.0863L25.9772 30.5269H27.2174L28.6703 33.9051L29.9932 30.5269H31.2335L29.2254 35.1926L31.328 40.0945H30.0877L28.5285 36.4919L27.182 40.0945H25.9417Z" fill="black"/>
<path d="M34.6757 40.2008C34.03 40.2008 33.5142 40.0748 33.1283 39.8228C32.7425 39.5708 32.4669 39.2126 32.3015 38.748C32.1361 38.2755 32.0535 37.7243 32.0535 37.0943V33.4681C32.0535 32.8381 32.1361 32.2987 32.3015 31.8498C32.4748 31.3931 32.7504 31.0466 33.1283 30.8104C33.5142 30.5663 34.03 30.4442 34.6757 30.4442C35.3214 30.4442 35.8333 30.5663 36.2112 30.8104C36.5892 31.0545 36.8609 31.401 37.0263 31.8498C37.1995 32.2987 37.2861 32.8381 37.2861 33.4681V37.1061C37.2861 37.7282 37.1995 38.2715 37.0263 38.7361C36.8609 39.2007 36.5892 39.563 36.2112 39.8228C35.8333 40.0748 35.3214 40.2008 34.6757 40.2008ZM34.6757 39.1496C35.0301 39.1496 35.2978 39.0787 35.4789 38.9369C35.66 38.7873 35.7821 38.5826 35.8451 38.3227C35.9081 38.055 35.9396 37.7439 35.9396 37.3896V33.1964C35.9396 32.842 35.9081 32.5389 35.8451 32.2869C35.7821 32.027 35.66 31.8301 35.4789 31.6963C35.2978 31.5545 35.0301 31.4837 34.6757 31.4837C34.3213 31.4837 34.0497 31.5545 33.8607 31.6963C33.6796 31.8301 33.5575 32.027 33.4945 32.2869C33.4315 32.5389 33.4 32.842 33.4 33.1964V37.3896C33.4 37.7439 33.4315 38.055 33.4945 38.3227C33.5575 38.5826 33.6796 38.7873 33.8607 38.9369C34.0497 39.0787 34.3213 39.1496 34.6757 39.1496Z" fill="black"/>
<path d="M37.9838 41.8308V39.1377H38.4208C38.5547 39.0275 38.6846 38.8936 38.8106 38.7361C38.9445 38.5786 39.0665 38.3739 39.1768 38.1219C39.2949 37.8621 39.4012 37.5313 39.4957 37.1297C39.5902 36.7203 39.6728 36.2084 39.7437 35.5942C39.8225 34.98 39.8815 34.2358 39.9209 33.3617L40.0745 30.5269H44.0787V39.1377H45V41.8308H43.9724L43.8661 40.0945H39.1177L39.0114 41.8308H37.9838ZM39.661 39.1377H42.7557V31.5191H41.2084L41.1139 33.6807C41.0824 34.5311 41.0312 35.2477 40.9603 35.8304C40.8973 36.4053 40.8186 36.8817 40.7241 37.2597C40.6375 37.6298 40.5351 37.9329 40.417 38.1692C40.3068 38.3975 40.1847 38.5826 40.0508 38.7243C39.9248 38.8661 39.7949 39.0039 39.661 39.1377Z" fill="black"/>
</svg>
