<svg width="175" height="52" viewBox="0 0 175 52" fill="none" xmlns="http://www.w3.org/2000/svg">
<path d="M73.8941 1H5.10198C2.66096 1 0.682129 2.97884 0.682129 5.41986V46.5801C0.682129 49.0212 2.66096 51 5.10198 51H73.8941C76.3351 51 78.3139 49.0212 78.3139 46.5801V5.41986C78.3139 2.97884 76.3351 1 73.8941 1Z" stroke="black" stroke-width="0.982463" stroke-linecap="round" stroke-linejoin="round"/>
<path fill-rule="evenodd" clip-rule="evenodd" d="M43.063 21.1405C43.063 28.3125 37.248 34.1287 30.0748 34.1287C22.9004 34.1287 17.0854 28.3137 17.0854 21.1405C17.0854 13.9661 22.9004 8.15112 30.0748 8.15112C37.2468 8.15112 43.063 13.9661 43.063 21.1405Z" fill="#F72000"/>
<path fill-rule="evenodd" clip-rule="evenodd" d="M61.6636 21.1405C61.6636 28.3125 55.8487 34.1287 48.6755 34.1287C41.501 34.1287 35.686 28.3137 35.686 21.1405C35.686 13.9661 41.501 8.15112 48.6755 8.15112C55.8474 8.15112 61.6636 13.9661 61.6636 21.1405Z" fill="#FFBB00"/>
<path fill-rule="evenodd" clip-rule="evenodd" d="M43.063 21.1405C43.063 28.3125 37.248 34.1287 30.0748 34.1287C22.9004 34.1287 17.0854 28.3137 17.0854 21.1405C17.0854 13.9661 22.9004 8.15112 30.0748 8.15112C37.2468 8.15112 43.063 13.9661 43.063 21.1405Z" fill="#F72000" fill-opacity="0.378"/>
<path d="M8.31982 37.0857H11.2885L12.434 42.9879L13.5751 37.0857H16.5342V46.7869H14.6908V39.3885L13.2619 46.7869H11.5922L10.1675 39.3885V46.7869H8.31982V37.0857ZM19.6829 42.0354L17.7447 41.7636C17.8182 41.3135 17.9237 40.9596 18.0611 40.702C18.1996 40.443 18.3979 40.2208 18.6568 40.0297C18.8422 39.8938 19.0979 39.7877 19.424 39.7127C19.749 39.6377 20.1006 39.5995 20.4789 39.5995C21.0873 39.5995 21.5764 39.6448 21.944 39.7354C22.3127 39.8259 22.6196 40.0142 22.8657 40.3015C23.0383 40.4997 23.1747 40.7813 23.2738 41.1451C23.374 41.5088 23.423 41.857 23.423 42.1868V45.2908C23.423 45.622 23.44 45.881 23.4709 46.0692C23.5029 46.2561 23.5711 46.4939 23.6777 46.7854H21.7746C21.7157 46.6538 21.6658 46.5155 21.6254 46.3721C21.5941 46.226 21.5709 46.077 21.5561 45.9263C21.2898 46.266 21.0255 46.508 20.7634 46.6538C20.3649 46.8576 19.9404 46.9566 19.5135 46.9454C18.8827 46.9454 18.4032 46.7514 18.0761 46.3622C17.9198 46.1857 17.7949 45.9655 17.7102 45.7174C17.6254 45.4693 17.583 45.1994 17.5859 44.927C17.5859 44.3934 17.7031 43.9546 17.9386 43.6107C18.1752 43.2653 18.6099 43.0105 19.2439 42.8421C19.7399 42.7171 20.2335 42.575 20.724 42.4161C20.9499 42.334 21.1885 42.2264 21.4411 42.0948C21.4411 41.7636 21.3899 41.5315 21.2866 41.3999C21.1843 41.2668 21.0031 41.2017 20.7431 41.2017C20.4117 41.2017 20.1624 41.2724 19.9973 41.414C19.8673 41.523 19.7628 41.7311 19.6829 42.0354ZM21.4411 43.4508C21.1549 43.5861 20.864 43.7033 20.5694 43.8018C20.1571 43.9476 19.8971 44.0905 19.7873 44.2321C19.7346 44.2944 19.6922 44.3706 19.6628 44.4559C19.6335 44.5412 19.6178 44.6337 19.6169 44.7274C19.6169 44.9397 19.6733 45.1138 19.7852 45.2483C19.896 45.3828 20.059 45.4493 20.2754 45.4493C20.5013 45.4493 20.7122 45.3771 20.9051 45.2313C21.0798 45.1121 21.224 44.927 21.3196 44.6991C21.4006 44.4882 21.4411 44.2165 21.4411 43.881V43.4508ZM24.2904 44.8407L26.3032 44.5887C26.3863 44.9072 26.5025 45.1337 26.6516 45.2709C26.8008 45.4082 27.0001 45.4762 27.2494 45.4762C27.5222 45.4762 27.7332 45.3984 27.8824 45.2441C27.9359 45.197 27.9799 45.1331 28.0104 45.058C28.0408 44.983 28.0569 44.8991 28.0571 44.8138C28.0571 44.6199 27.9804 44.4698 27.828 44.3637C27.7183 44.2887 27.4274 44.1966 26.9553 44.0862C26.2521 43.9235 25.7619 43.7721 25.4891 43.6334C25.2122 43.4915 24.9717 43.2468 24.7965 42.9285C24.6103 42.6033 24.5113 42.2047 24.5152 41.7962C24.5152 41.3333 24.6164 40.9342 24.8189 40.5987C25.0213 40.2633 25.3005 40.0142 25.6554 39.8486C26.0112 39.683 26.4865 39.5995 27.0853 39.5995C27.7161 39.5995 28.1828 39.6645 28.4823 39.7919C28.7827 39.9193 29.0342 40.1175 29.2346 40.3864C29.436 40.6553 29.6022 41.0205 29.7354 41.4791L27.8131 41.7311C27.7763 41.5322 27.688 41.3569 27.5637 41.2357C27.3913 41.0893 27.1897 41.0153 26.9852 41.0234C26.7561 41.0234 26.5898 41.0771 26.4843 41.1847C26.4364 41.2289 26.3972 41.2876 26.37 41.3561C26.3427 41.4246 26.3282 41.5008 26.3277 41.5782C26.3277 41.7509 26.3948 41.8811 26.527 41.9689C26.6602 42.0566 26.9489 42.1359 27.3943 42.2066C28.0678 42.3085 28.5697 42.4501 28.8989 42.6312C29.2271 42.811 29.4785 43.07 29.6533 43.4055C29.828 43.7395 29.9144 44.1089 29.9144 44.5095C29.9144 44.9157 29.8227 45.3106 29.6373 45.6942C29.4541 46.0777 29.1631 46.3835 28.7668 46.6114C28.3693 46.8378 27.8291 46.951 27.145 46.951C26.1786 46.951 25.4902 46.7685 25.0799 46.4019C24.6725 46.0399 24.3891 45.4788 24.2914 44.8407H24.2904ZM33.3327 37.0843V39.7594H34.4483V41.724H33.3327V44.2193C33.3327 44.5194 33.354 44.7175 33.3966 44.8138C33.4637 44.9638 33.5799 45.0402 33.7461 45.0402C33.8953 45.0402 34.1041 44.9822 34.3737 44.8676L34.5229 46.726C34.0221 46.8718 33.5532 46.9454 33.1185 46.9454C32.6134 46.9454 32.2415 46.859 32.0018 46.6863C31.7622 46.5139 31.5748 46.2369 31.4712 45.9022C31.3571 45.5526 31.3007 44.9836 31.3007 44.1995V41.724H30.5527V39.7594H31.2996V38.4685L33.3327 37.0843ZM41.2828 43.9405H37.2177C37.2539 44.3736 37.3424 44.6949 37.4819 44.9072C37.5755 45.0554 37.6932 45.1734 37.8261 45.2524C37.959 45.3313 38.1036 45.3691 38.2491 45.3629C38.4484 45.3629 38.637 45.2979 38.8171 45.1648C38.9268 45.0799 39.044 44.9327 39.1708 44.7218L41.1677 44.9666C40.8629 45.6729 40.4943 46.1782 40.0627 46.4854C39.6301 46.7911 39.011 46.9454 38.2044 46.9454C37.5033 46.9454 36.9524 46.8137 36.5507 46.5519C36.1489 46.2886 35.8154 45.8725 35.5511 45.3007C35.288 44.7288 35.1558 44.058 35.1558 43.2852C35.1558 42.1868 35.4201 41.2979 35.9497 40.6185C36.4793 39.9392 37.2113 39.5995 38.1447 39.5995C38.9013 39.5995 39.499 39.7523 39.938 40.0566C40.376 40.3609 40.7095 40.8025 40.9397 41.38C41.1677 41.9575 41.2828 42.7105 41.2828 43.6362V43.9405ZM39.2209 42.6511C39.1804 42.1302 39.0749 41.7565 38.9045 41.5329C38.734 41.3064 38.5081 41.1946 38.2289 41.1946C38.0787 41.1893 37.9299 41.2329 37.7954 41.3218C37.6609 41.4106 37.5449 41.5419 37.4574 41.7042C37.3338 41.9165 37.255 42.2307 37.223 42.6511H39.2209ZM42.2439 39.7594H44.1427V40.9101C44.3239 40.4119 44.5136 40.0694 44.7075 39.8811C44.9014 39.6943 45.1422 39.5995 45.4278 39.5995C45.7261 39.5995 46.0533 39.724 46.4081 39.9703L45.7816 41.8896C45.5418 41.7565 45.3532 41.6914 45.2136 41.6914C45.0909 41.6857 44.9691 41.7229 44.8606 41.7994C44.7522 41.876 44.6608 41.9891 44.5956 42.1274C44.3867 42.5378 44.2813 43.305 44.2813 44.4302V46.7869H42.2439V39.7594ZM51.7444 42.8223L53.7221 43.6163C53.5889 44.3523 53.38 44.9681 53.0934 45.462C52.8089 45.9574 52.4541 46.3297 52.031 46.5802C51.6069 46.8322 51.0678 46.9581 50.4135 46.9581C49.6207 46.9581 48.9718 46.8052 48.4689 46.4981C47.9659 46.1924 47.5312 45.6531 47.1657 44.8803C46.8002 44.1089 46.618 43.121 46.618 41.9165C46.618 40.31 46.9398 39.0758 47.5823 38.2138C48.2249 37.3504 49.1338 36.9201 50.3102 36.9201C51.2297 36.9201 51.9522 37.1664 52.4786 37.6618C53.005 38.1558 53.396 38.9144 53.6517 39.9377L51.6592 40.5265C51.6124 40.2966 51.5387 40.0778 51.4407 39.8783C51.3202 39.6553 51.1612 39.4738 50.9772 39.3489C50.7871 39.223 50.577 39.1595 50.3645 39.1635C49.853 39.1635 49.4609 39.4367 49.1881 39.9845C48.9825 40.3893 48.8791 41.0276 48.8791 41.8952C48.8791 42.9724 49.0027 43.7098 49.2478 44.1089C49.4939 44.5081 49.8392 44.709 50.2846 44.709C50.7161 44.709 51.0422 44.5477 51.2638 44.225C51.4844 43.9037 51.6442 43.4352 51.7433 42.8237L51.7444 42.8223ZM56.5266 42.0354L54.5884 41.7636C54.6619 41.3135 54.7674 40.9596 54.9048 40.702C55.0433 40.443 55.2416 40.2208 55.5005 40.0297C55.6859 39.8938 55.9416 39.7877 56.2677 39.7127C56.5927 39.6377 56.9454 39.5995 57.3226 39.5995C57.931 39.5995 58.4201 39.6448 58.7877 39.7354C59.1564 39.8259 59.4643 40.0142 59.7094 40.3015C59.882 40.4997 60.0184 40.7813 60.1186 41.1451C60.2177 41.5088 60.2678 41.857 60.2678 42.1868V45.2908C60.2678 45.622 60.2838 45.881 60.3147 46.0692C60.3466 46.2561 60.4159 46.4939 60.5214 46.7854H58.6183C58.5594 46.6538 58.5095 46.5155 58.4691 46.3721C58.4378 46.226 58.4147 46.077 58.3999 45.9263C58.1335 46.266 57.8692 46.508 57.6071 46.6538C57.2086 46.8576 56.7841 46.9566 56.3572 46.9454C55.7264 46.9454 55.2469 46.7514 54.9197 46.3622C54.7635 46.1857 54.6386 45.9655 54.5539 45.7174C54.4691 45.4693 54.4267 45.1994 54.4296 44.927C54.4296 44.3934 54.5468 43.9546 54.7823 43.6107C55.0188 43.2653 55.4536 43.0105 56.0876 42.8421C56.5836 42.7171 57.0772 42.575 57.5677 42.4161C57.7936 42.334 58.0323 42.2264 58.2848 42.0948C58.2848 41.7636 58.2336 41.5315 58.1303 41.3999C58.028 41.2668 57.8468 41.2017 57.5869 41.2017C57.2555 41.2017 57.0061 41.2724 56.841 41.414C56.711 41.523 56.6065 41.7311 56.5266 42.0354ZM58.2848 43.4508C57.9986 43.5861 57.7077 43.7033 57.4131 43.8018C57.0018 43.9476 56.7408 44.0905 56.631 44.2321C56.5785 44.2945 56.5363 44.3708 56.5071 44.4561C56.4779 44.5414 56.4625 44.6338 56.4616 44.7274C56.4616 44.9397 56.517 45.1138 56.6289 45.2483C56.7397 45.3828 56.9038 45.4493 57.119 45.4493C57.3449 45.4493 57.5559 45.3771 57.7499 45.2313C57.9241 45.1119 58.068 44.9268 58.1633 44.6991C58.2443 44.4882 58.2848 44.2165 58.2848 43.881V43.4508ZM61.5134 39.7594H63.4101V40.9101C63.5934 40.4119 63.783 40.0694 63.9759 39.8811C64.1709 39.6943 64.4107 39.5995 64.6962 39.5995C64.9946 39.5995 65.3217 39.724 65.6776 39.9703L65.0489 41.8896C64.8113 41.7565 64.6216 41.6914 64.482 41.6914C64.3593 41.6857 64.2376 41.7229 64.1291 41.7994C64.0206 41.876 63.9292 41.9891 63.864 42.1274C63.6552 42.5378 63.5507 43.305 63.5507 44.4302V46.7869H61.5134V39.7594ZM71.5861 37.0843V46.7869H69.6873V45.7479C69.422 46.1881 69.1801 46.4868 68.9606 46.6396C68.6686 46.8435 68.3426 46.9454 67.9845 46.9454C67.2632 46.9454 66.7133 46.5816 66.3329 45.8527C65.9525 45.1252 65.7618 44.2406 65.7618 43.2002C65.7618 42.0354 65.9727 41.1436 66.3926 40.5251C66.8124 39.9094 67.3463 39.5995 67.9941 39.5995C68.3095 39.5995 68.5962 39.6702 68.853 39.8118C69.1108 39.9533 69.3388 40.1656 69.5381 40.4473V37.0857L71.5861 37.0843ZM69.553 43.2526C69.553 42.7006 69.4657 42.2901 69.2888 42.0184C69.2078 41.8883 69.1057 41.7843 68.9902 41.7139C68.8747 41.6436 68.7488 41.6088 68.6217 41.6122C68.507 41.6111 68.3936 41.6458 68.2907 41.7134C68.1878 41.7809 68.0983 41.8796 68.0293 42.0014C67.8694 42.2618 67.7895 42.6992 67.7895 43.312C67.7895 43.8853 67.8716 44.3057 68.0367 44.5718C68.1077 44.6972 68.1998 44.7988 68.3057 44.8686C68.4115 44.9384 68.5281 44.9744 68.6462 44.9737C68.7703 44.9761 68.8931 44.9408 69.0053 44.8707C69.1176 44.8006 69.2164 44.6973 69.2941 44.5689C69.4667 44.3 69.553 43.8612 69.553 43.2526Z" fill="black"/>
<path fill-rule="evenodd" clip-rule="evenodd" d="M174.629 6.69535C174.629 2.88857 172.65 1 168.813 1H101.187C99.269 1 97.86 1.50963 96.9306 2.55855C95.8816 3.6079 95.3716 4.95675 95.3716 6.69535V45.3046C95.3716 47.0432 95.8816 48.362 96.9306 49.441C98.01 50.4904 99.3889 51 101.187 51H168.813C172.65 51 174.629 49.0822 174.629 45.3051V6.69535ZM168.813 1.89938C171.99 1.89938 173.609 3.51809 173.609 6.69535V45.3046C173.609 48.5116 171.99 50.1002 168.813 50.1002H101.187C99.6583 50.1002 98.4895 49.6507 97.6202 48.7513C96.7209 47.8816 96.2714 46.6827 96.2714 45.3042V6.69535C96.2714 3.51809 97.86 1.89938 101.187 1.89938H168.813Z" fill="#315881"/>
<path fill-rule="evenodd" clip-rule="evenodd" d="M101.726 4.11755C100.438 4.11755 99.6282 4.32725 99.1787 4.77715C98.789 5.28679 98.6094 6.12601 98.6094 7.35498V15.718H171.391V7.35498C171.391 5.1669 170.311 4.11755 168.153 4.11755H101.726Z" fill="#315881"/>
<path fill-rule="evenodd" clip-rule="evenodd" d="M98.6094 44.5252C98.6094 46.7425 99.6583 47.882 101.726 47.882H168.153C170.311 47.882 171.391 46.7429 171.391 44.5252V36.1617H98.6094V44.5252Z" fill="#DFA43B"/>
<path fill-rule="evenodd" clip-rule="evenodd" d="M122.71 19.2854C122.71 19.6751 122.65 19.9746 122.5 20.1847L117.254 29.3276L116.924 18.1763H108.531L111.349 19.5251C112.158 20.0348 112.578 20.6939 112.578 21.5336L113.357 33.3746H117.464L127.296 18.1763H122.26C122.56 18.4461 122.71 18.8655 122.71 19.2854ZM156.643 18.6258L156.972 18.1759H151.846C152.026 18.3555 152.086 18.4457 152.086 18.5054C152.025 18.7448 151.906 18.8952 151.846 19.0748L144.382 32.6837C144.203 32.9235 144.022 33.1336 143.813 33.3738H148.039L147.829 32.9239C147.829 32.5341 148.039 31.8152 148.489 30.796L149.388 29.1171H153.735C153.915 30.5261 154.035 31.6953 154.095 32.5651L153.735 33.3742H158.981L158.201 32.235L156.643 18.6258ZM153.525 26.9892H150.408L153.075 21.8632L153.525 26.9892ZM140.575 17.3968C138.957 17.3968 137.578 17.8467 136.349 18.7456C135 19.5251 134.34 20.5143 134.34 21.7437C134.34 23.1527 134.82 24.3817 135.779 25.3107L138.687 27.3188C139.737 28.0686 140.246 28.7278 140.246 29.3276C140.246 29.897 139.976 30.4066 139.467 30.7964C138.957 31.1861 138.387 31.3657 137.668 31.3657C136.619 31.3657 134.82 30.6168 132.332 29.2378V32.0253C134.281 33.1946 136.17 33.7944 137.998 33.7944C139.737 33.7944 141.205 33.3145 142.465 32.2355C143.814 31.2459 144.473 30.0775 144.473 28.7883C144.473 27.7085 143.993 26.7197 142.914 25.6704L140.126 23.6619C139.197 22.9125 138.687 22.2529 138.687 21.7437C138.687 20.5749 139.377 19.975 140.786 19.975C141.745 19.975 143.154 20.5147 145.042 21.6539L145.612 18.7461C144.023 17.8463 142.374 17.3968 140.575 17.3968ZM129.425 33.3742C129.364 32.7447 129.244 32.1753 129.184 31.5754L132.992 19.2854L133.891 18.1763H128.405C128.465 18.4461 128.525 18.8058 128.585 19.0757C128.585 19.3455 128.585 19.6755 128.525 19.975L124.718 32.1452L123.939 33.3746L129.425 33.3742Z" fill="#315881"/>
</svg>
